<?xml version="1.0" standalone="no"?>
 <!DOCTYPE svg PUBLIC "-//W3C//DTD SVG 1.1//EN" 
 "http://www.w3.org/Graphics/SVG/1.1/DTD/svg11.dtd"> 
<svg xmlns="http://www.w3.org/2000/svg" version="1.1" 
    width="29.7002cm" height="21.0007cm" viewBox="0 0 116930 82680 ">
<title>SVG Picture created as plikter-B_Cu.svg date 2020/04/28 22:52:10 </title>
  <desc>Picture generated by PCBNEW </desc>
<g style="fill:#000000; fill-opacity:1;stroke:#000000; stroke-opacity:1;
stroke-linecap:round; stroke-linejoin:round; "
 transform="translate(0 0) scale(1 1)">
</g>
<g style="fill:#000000; fill-opacity:0.0; 
stroke:#000000; stroke-width:-0.000393701; stroke-opacity:1; 
stroke-linecap:round; stroke-linejoin:round;">
<g >
</g>
<g style="fill:#000000; fill-opacity:0.0; 
stroke:#000000; stroke-width:629.921; stroke-opacity:1; 
stroke-linecap:round; stroke-linejoin:round;">
<path d="M30637 24401
L30952 24401
" />
<path d="M27637 31401
L27952 31401
" />
<path d="M30637 25401
L30952 25401
" />
<path d="M27637 30401
L27952 30401
" />
<path d="M30637 26401
L30952 26401
" />
<path d="M27637 29401
L27952 29401
" />
<path d="M30637 27401
L30952 27401
" />
<path d="M27637 28401
L27952 28401
" />
<path d="M30637 28401
L30952 28401
" />
<path d="M27637 27401
L27952 27401
" />
<path d="M30637 29401
L30952 29401
" />
<path d="M27637 26401
L27952 26401
" />
<path d="M30637 30401
L30952 30401
" />
<path d="M27637 25401
L27952 25401
" />
<path d="M30637 31401
L30952 31401
" />
</g>
<g style="fill:#000000; fill-opacity:0.0; 
stroke:#000000; stroke-width:0; stroke-opacity:1; 
stroke-linecap:round; stroke-linejoin:round;">
</g>
<g style="fill:#000000; fill-opacity:1.0; 
stroke:#000000; stroke-width:0; stroke-opacity:1; 
stroke-linecap:round; stroke-linejoin:round;">
<path style="fill:#000000; fill-opacity:1.0; 
stroke:#000000; stroke-width:0; stroke-opacity:1; 
stroke-linecap:round; stroke-linejoin:round;fill-rule:evenodd;"
d="M 27322.8,24716.5
27322.8,24086.6
28267.7,24086.6
28267.7,24716.5
Z" /> 
</g>
<g >
</g>
<g style="fill:#000000; fill-opacity:1.0; 
stroke:#000000; stroke-width:0; stroke-opacity:1; 
stroke-linecap:round; stroke-linejoin:round;">
</g>
<g style="fill:#000000; fill-opacity:1.0; 
stroke:#000000; stroke-width:629.921; stroke-opacity:1; 
stroke-linecap:round; stroke-linejoin:round;">
</g>
<g style="fill:#000000; fill-opacity:0.0; 
stroke:#000000; stroke-width:629.921; stroke-opacity:1; 
stroke-linecap:round; stroke-linejoin:round;">
<path d="M30842 38500
L31157 38500
" />
<path d="M27842 45500
L28157 45500
" />
<path d="M30842 39500
L31157 39500
" />
<path d="M27842 44500
L28157 44500
" />
<path d="M30842 40500
L31157 40500
" />
<path d="M27842 43500
L28157 43500
" />
<path d="M30842 41500
L31157 41500
" />
<path d="M27842 42500
L28157 42500
" />
<path d="M30842 42500
L31157 42500
" />
<path d="M27842 41500
L28157 41500
" />
<path d="M30842 43500
L31157 43500
" />
<path d="M27842 40500
L28157 40500
" />
<path d="M30842 44500
L31157 44500
" />
<path d="M27842 39500
L28157 39500
" />
<path d="M30842 45500
L31157 45500
" />
</g>
<g style="fill:#000000; fill-opacity:0.0; 
stroke:#000000; stroke-width:0; stroke-opacity:1; 
stroke-linecap:round; stroke-linejoin:round;">
</g>
<g style="fill:#000000; fill-opacity:1.0; 
stroke:#000000; stroke-width:0; stroke-opacity:1; 
stroke-linecap:round; stroke-linejoin:round;">
<path style="fill:#000000; fill-opacity:1.0; 
stroke:#000000; stroke-width:0; stroke-opacity:1; 
stroke-linecap:round; stroke-linejoin:round;fill-rule:evenodd;"
d="M 27527.6,38815
27527.6,38185
28472.4,38185
28472.4,38815
Z" /> 
</g>
<g >
</g>
<g style="fill:#000000; fill-opacity:1.0; 
stroke:#000000; stroke-width:0; stroke-opacity:1; 
stroke-linecap:round; stroke-linejoin:round;">
<path style="fill:#000000; fill-opacity:1.0; 
stroke:#000000; stroke-width:0; stroke-opacity:1; 
stroke-linecap:round; stroke-linejoin:round;fill-rule:evenodd;"
d="M 24974.5,38224.9
24983.8,38226.3
24992.9,38228.5
25001.8,38231.7
25010.3,38235.7
25018.4,38240.6
25025.9,38246.2
25032.9,38252.5
25039.2,38259.5
25044.9,38267.1
25049.7,38275.1
25053.7,38283.7
25056.9,38292.5
25059.2,38301.7
25060.6,38311
25061,38320.4
25061,38679.6
25060.6,38689
25059.2,38698.3
25056.9,38707.5
25053.7,38716.3
25049.7,38724.9
25044.9,38732.9
25039.2,38740.5
25032.9,38747.5
25025.9,38753.8
25018.4,38759.4
25010.3,38764.3
25001.8,38768.3
24992.9,38771.5
24983.8,38773.7
24974.5,38775.1
24965.1,38775.6
24773.1,38775.6
24763.7,38775.1
24754.4,38773.7
24745.3,38771.5
24736.4,38768.3
24727.9,38764.3
24719.8,38759.4
24712.3,38753.8
24705.3,38747.5
24698.9,38740.5
24693.3,38732.9
24688.5,38724.9
24684.5,38716.3
24681.3,38707.5
24679,38698.3
24677.6,38689
24677.2,38679.6
24677.2,38320.4
24677.6,38311
24679,38301.7
24681.3,38292.5
24684.5,38283.7
24688.5,38275.1
24693.3,38267.1
24698.9,38259.5
24705.3,38252.5
24712.3,38246.2
24719.8,38240.6
24727.9,38235.7
24736.4,38231.7
24745.3,38228.5
24754.4,38226.3
24763.7,38224.9
24773.1,38224.4
24965.1,38224.4
Z" /> 
<path style="fill:#000000; fill-opacity:1.0; 
stroke:#000000; stroke-width:0; stroke-opacity:1; 
stroke-linecap:round; stroke-linejoin:round;fill-rule:evenodd;"
d="M 24236.3,38224.9
24245.6,38226.3
24254.7,38228.5
24263.6,38231.7
24272.1,38235.7
24280.2,38240.6
24287.7,38246.2
24294.7,38252.5
24301.1,38259.5
24306.7,38267.1
24311.5,38275.1
24315.5,38283.7
24318.7,38292.5
24321,38301.7
24322.4,38311
24322.8,38320.4
24322.8,38679.6
24322.4,38689
24321,38698.3
24318.7,38707.5
24315.5,38716.3
24311.5,38724.9
24306.7,38732.9
24301.1,38740.5
24294.7,38747.5
24287.7,38753.8
24280.2,38759.4
24272.1,38764.3
24263.6,38768.3
24254.7,38771.5
24245.6,38773.7
24236.3,38775.1
24226.9,38775.6
24034.9,38775.6
24025.5,38775.1
24016.2,38773.7
24007.1,38771.5
23998.2,38768.3
23989.7,38764.3
23981.6,38759.4
23974.1,38753.8
23967.1,38747.5
23960.8,38740.5
23955.1,38732.9
23950.3,38724.9
23946.3,38716.3
23943.1,38707.5
23940.8,38698.3
23939.4,38689
23939,38679.6
23939,38320.4
23939.4,38311
23940.8,38301.7
23943.1,38292.5
23946.3,38283.7
23950.3,38275.1
23955.1,38267.1
23960.8,38259.5
23967.1,38252.5
23974.1,38246.2
23981.6,38240.6
23989.7,38235.7
23998.2,38231.7
24007.1,38228.5
24016.2,38226.3
24025.5,38224.9
24034.9,38224.4
24226.9,38224.4
Z" /> 
</g>
<g >
</g>
<g style="fill:#000000; fill-opacity:1.0; 
stroke:#000000; stroke-width:0; stroke-opacity:1; 
stroke-linecap:round; stroke-linejoin:round;">
<path style="fill:#000000; fill-opacity:1.0; 
stroke:#000000; stroke-width:0; stroke-opacity:1; 
stroke-linecap:round; stroke-linejoin:round;fill-rule:evenodd;"
d="M 24474.5,24224.9
24483.8,24226.3
24492.9,24228.5
24501.8,24231.7
24510.3,24235.7
24518.4,24240.6
24525.9,24246.2
24532.9,24252.5
24539.2,24259.5
24544.9,24267.1
24549.7,24275.1
24553.7,24283.7
24556.9,24292.5
24559.2,24301.7
24560.6,24311
24561,24320.4
24561,24679.6
24560.6,24689
24559.2,24698.3
24556.9,24707.5
24553.7,24716.3
24549.7,24724.9
24544.9,24732.9
24539.2,24740.5
24532.9,24747.5
24525.9,24753.8
24518.4,24759.4
24510.3,24764.3
24501.8,24768.3
24492.9,24771.5
24483.8,24773.7
24474.5,24775.1
24465.1,24775.6
24273.1,24775.6
24263.7,24775.1
24254.4,24773.7
24245.3,24771.5
24236.4,24768.3
24227.9,24764.3
24219.8,24759.4
24212.3,24753.8
24205.3,24747.5
24198.9,24740.5
24193.3,24732.9
24188.5,24724.9
24184.5,24716.3
24181.3,24707.5
24179,24698.3
24177.6,24689
24177.2,24679.6
24177.2,24320.4
24177.6,24311
24179,24301.7
24181.3,24292.5
24184.5,24283.7
24188.5,24275.1
24193.3,24267.1
24198.9,24259.5
24205.3,24252.5
24212.3,24246.2
24219.8,24240.6
24227.9,24235.7
24236.4,24231.7
24245.3,24228.5
24254.4,24226.3
24263.7,24224.9
24273.1,24224.4
24465.1,24224.4
Z" /> 
<path style="fill:#000000; fill-opacity:1.0; 
stroke:#000000; stroke-width:0; stroke-opacity:1; 
stroke-linecap:round; stroke-linejoin:round;fill-rule:evenodd;"
d="M 23736.3,24224.9
23745.6,24226.3
23754.7,24228.5
23763.6,24231.7
23772.1,24235.7
23780.2,24240.6
23787.7,24246.2
23794.7,24252.5
23801.1,24259.5
23806.7,24267.1
23811.5,24275.1
23815.5,24283.7
23818.7,24292.5
23821,24301.7
23822.4,24311
23822.8,24320.4
23822.8,24679.6
23822.4,24689
23821,24698.3
23818.7,24707.5
23815.5,24716.3
23811.5,24724.9
23806.7,24732.9
23801.1,24740.5
23794.7,24747.5
23787.7,24753.8
23780.2,24759.4
23772.1,24764.3
23763.6,24768.3
23754.7,24771.5
23745.6,24773.7
23736.3,24775.1
23726.9,24775.6
23534.9,24775.6
23525.5,24775.1
23516.2,24773.7
23507.1,24771.5
23498.2,24768.3
23489.7,24764.3
23481.6,24759.4
23474.1,24753.8
23467.1,24747.5
23460.8,24740.5
23455.1,24732.9
23450.3,24724.9
23446.3,24716.3
23443.1,24707.5
23440.8,24698.3
23439.4,24689
23439,24679.6
23439,24320.4
23439.4,24311
23440.8,24301.7
23443.1,24292.5
23446.3,24283.7
23450.3,24275.1
23455.1,24267.1
23460.8,24259.5
23467.1,24252.5
23474.1,24246.2
23481.6,24240.6
23489.7,24235.7
23498.2,24231.7
23507.1,24228.5
23516.2,24226.3
23525.5,24224.9
23534.9,24224.4
23726.9,24224.4
Z" /> 
</g>
<g >
</g>
<g style="fill:#000000; fill-opacity:1.0; 
stroke:#000000; stroke-width:0; stroke-opacity:1; 
stroke-linecap:round; stroke-linejoin:round;">
<path style="fill:#000000; fill-opacity:1.0; 
stroke:#000000; stroke-width:0; stroke-opacity:1; 
stroke-linecap:round; stroke-linejoin:round;fill-rule:evenodd;"
d="M 34236.3,39224.9
34245.6,39226.3
34254.7,39228.5
34263.6,39231.7
34272.1,39235.7
34280.2,39240.6
34287.7,39246.2
34294.7,39252.5
34301.1,39259.5
34306.7,39267.1
34311.5,39275.1
34315.5,39283.7
34318.7,39292.5
34321,39301.7
34322.4,39311
34322.8,39320.4
34322.8,39679.6
34322.4,39689
34321,39698.3
34318.7,39707.5
34315.5,39716.3
34311.5,39724.9
34306.7,39732.9
34301.1,39740.5
34294.7,39747.5
34287.7,39753.8
34280.2,39759.4
34272.1,39764.3
34263.6,39768.3
34254.7,39771.5
34245.6,39773.7
34236.3,39775.1
34226.9,39775.6
34034.9,39775.6
34025.5,39775.1
34016.2,39773.7
34007.1,39771.5
33998.2,39768.3
33989.7,39764.3
33981.6,39759.4
33974.1,39753.8
33967.1,39747.5
33960.8,39740.5
33955.1,39732.9
33950.3,39724.9
33946.3,39716.3
33943.1,39707.5
33940.8,39698.3
33939.4,39689
33939,39679.6
33939,39320.4
33939.4,39311
33940.8,39301.7
33943.1,39292.5
33946.3,39283.7
33950.3,39275.1
33955.1,39267.1
33960.8,39259.5
33967.1,39252.5
33974.1,39246.2
33981.6,39240.6
33989.7,39235.7
33998.2,39231.7
34007.1,39228.5
34016.2,39226.3
34025.5,39224.9
34034.9,39224.4
34226.9,39224.4
Z" /> 
<path style="fill:#000000; fill-opacity:1.0; 
stroke:#000000; stroke-width:0; stroke-opacity:1; 
stroke-linecap:round; stroke-linejoin:round;fill-rule:evenodd;"
d="M 34974.5,39224.9
34983.8,39226.3
34992.9,39228.5
35001.8,39231.7
35010.3,39235.7
35018.4,39240.6
35025.9,39246.2
35032.9,39252.5
35039.2,39259.5
35044.9,39267.1
35049.7,39275.1
35053.7,39283.7
35056.9,39292.5
35059.2,39301.7
35060.6,39311
35061,39320.4
35061,39679.6
35060.6,39689
35059.2,39698.3
35056.9,39707.5
35053.7,39716.3
35049.7,39724.9
35044.9,39732.9
35039.2,39740.5
35032.9,39747.5
35025.9,39753.8
35018.4,39759.4
35010.3,39764.3
35001.8,39768.3
34992.9,39771.5
34983.8,39773.7
34974.5,39775.1
34965.1,39775.6
34773.1,39775.6
34763.7,39775.1
34754.4,39773.7
34745.3,39771.5
34736.4,39768.3
34727.9,39764.3
34719.8,39759.4
34712.3,39753.8
34705.3,39747.5
34698.9,39740.5
34693.3,39732.9
34688.5,39724.9
34684.5,39716.3
34681.3,39707.5
34679,39698.3
34677.6,39689
34677.2,39679.6
34677.2,39320.4
34677.6,39311
34679,39301.7
34681.3,39292.5
34684.5,39283.7
34688.5,39275.1
34693.3,39267.1
34698.9,39259.5
34705.3,39252.5
34712.3,39246.2
34719.8,39240.6
34727.9,39235.7
34736.4,39231.7
34745.3,39228.5
34754.4,39226.3
34763.7,39224.9
34773.1,39224.4
34965.1,39224.4
Z" /> 
</g>
<g >
</g>
<g style="fill:#000000; fill-opacity:1.0; 
stroke:#000000; stroke-width:0; stroke-opacity:1; 
stroke-linecap:round; stroke-linejoin:round;">
<path style="fill:#000000; fill-opacity:1.0; 
stroke:#000000; stroke-width:0; stroke-opacity:1; 
stroke-linecap:round; stroke-linejoin:round;fill-rule:evenodd;"
d="M 34367.2,25224.9
34376.5,25226.3
34385.6,25228.5
34394.5,25231.7
34403,25235.7
34411.1,25240.6
34418.7,25246.2
34425.6,25252.5
34432,25259.5
34437.6,25267.1
34442.4,25275.1
34446.4,25283.7
34449.6,25292.5
34451.9,25301.7
34453.3,25311
34453.7,25320.4
34453.7,25679.6
34453.3,25689
34451.9,25698.3
34449.6,25707.5
34446.4,25716.3
34442.4,25724.9
34437.6,25732.9
34432,25740.5
34425.6,25747.5
34418.7,25753.8
34411.1,25759.4
34403,25764.3
34394.5,25768.3
34385.6,25771.5
34376.5,25773.7
34367.2,25775.1
34357.8,25775.6
34165.8,25775.6
34156.4,25775.1
34147.1,25773.7
34138,25771.5
34129.1,25768.3
34120.6,25764.3
34112.5,25759.4
34105,25753.8
34098,25747.5
34091.7,25740.5
34086.1,25732.9
34081.2,25724.9
34077.2,25716.3
34074,25707.5
34071.7,25698.3
34070.3,25689
34069.9,25679.6
34069.9,25320.4
34070.3,25311
34071.7,25301.7
34074,25292.5
34077.2,25283.7
34081.2,25275.1
34086.1,25267.1
34091.7,25259.5
34098,25252.5
34105,25246.2
34112.5,25240.6
34120.6,25235.7
34129.1,25231.7
34138,25228.5
34147.1,25226.3
34156.4,25224.9
34165.8,25224.4
34357.8,25224.4
Z" /> 
<path style="fill:#000000; fill-opacity:1.0; 
stroke:#000000; stroke-width:0; stroke-opacity:1; 
stroke-linecap:round; stroke-linejoin:round;fill-rule:evenodd;"
d="M 35105.4,25224.9
35114.7,25226.3
35123.8,25228.5
35132.7,25231.7
35141.2,25235.7
35149.3,25240.6
35156.8,25246.2
35163.8,25252.5
35170.1,25259.5
35175.8,25267.1
35180.6,25275.1
35184.6,25283.7
35187.8,25292.5
35190.1,25301.7
35191.5,25311
35191.9,25320.4
35191.9,25679.6
35191.5,25689
35190.1,25698.3
35187.8,25707.5
35184.6,25716.3
35180.6,25724.9
35175.8,25732.9
35170.1,25740.5
35163.8,25747.5
35156.8,25753.8
35149.3,25759.4
35141.2,25764.3
35132.7,25768.3
35123.8,25771.5
35114.7,25773.7
35105.4,25775.1
35096,25775.6
34904,25775.6
34894.6,25775.1
34885.3,25773.7
34876.2,25771.5
34867.3,25768.3
34858.8,25764.3
34850.7,25759.4
34843.2,25753.8
34836.2,25747.5
34829.9,25740.5
34824.2,25732.9
34819.4,25724.9
34815.4,25716.3
34812.2,25707.5
34809.9,25698.3
34808.5,25689
34808.1,25679.6
34808.1,25320.4
34808.5,25311
34809.9,25301.7
34812.2,25292.5
34815.4,25283.7
34819.4,25275.1
34824.2,25267.1
34829.9,25259.5
34836.2,25252.5
34843.2,25246.2
34850.7,25240.6
34858.8,25235.7
34867.3,25231.7
34876.2,25228.5
34885.3,25226.3
34894.6,25224.9
34904,25224.4
35096,25224.4
Z" /> 
</g>
<g >
</g>
<g style="fill:#000000; fill-opacity:1.0; 
stroke:#000000; stroke-width:0; stroke-opacity:1; 
stroke-linecap:round; stroke-linejoin:round;">
<path style="fill:#000000; fill-opacity:1.0; 
stroke:#000000; stroke-width:0; stroke-opacity:1; 
stroke-linecap:round; stroke-linejoin:round;fill-rule:evenodd;"
d="M 34236.3,40224.9
34245.6,40226.3
34254.7,40228.5
34263.6,40231.7
34272.1,40235.7
34280.2,40240.6
34287.7,40246.2
34294.7,40252.5
34301.1,40259.5
34306.7,40267.1
34311.5,40275.1
34315.5,40283.7
34318.7,40292.5
34321,40301.7
34322.4,40311
34322.8,40320.4
34322.8,40679.6
34322.4,40689
34321,40698.3
34318.7,40707.5
34315.5,40716.3
34311.5,40724.9
34306.7,40732.9
34301.1,40740.5
34294.7,40747.5
34287.7,40753.8
34280.2,40759.4
34272.1,40764.3
34263.6,40768.3
34254.7,40771.5
34245.6,40773.7
34236.3,40775.1
34226.9,40775.6
34034.9,40775.6
34025.5,40775.1
34016.2,40773.7
34007.1,40771.5
33998.2,40768.3
33989.7,40764.3
33981.6,40759.4
33974.1,40753.8
33967.1,40747.5
33960.8,40740.5
33955.1,40732.9
33950.3,40724.9
33946.3,40716.3
33943.1,40707.5
33940.8,40698.3
33939.4,40689
33939,40679.6
33939,40320.4
33939.4,40311
33940.8,40301.7
33943.1,40292.5
33946.3,40283.7
33950.3,40275.1
33955.1,40267.1
33960.8,40259.5
33967.1,40252.5
33974.1,40246.2
33981.6,40240.6
33989.7,40235.7
33998.2,40231.7
34007.1,40228.5
34016.2,40226.3
34025.5,40224.9
34034.9,40224.4
34226.9,40224.4
Z" /> 
<path style="fill:#000000; fill-opacity:1.0; 
stroke:#000000; stroke-width:0; stroke-opacity:1; 
stroke-linecap:round; stroke-linejoin:round;fill-rule:evenodd;"
d="M 34974.5,40224.9
34983.8,40226.3
34992.9,40228.5
35001.8,40231.7
35010.3,40235.7
35018.4,40240.6
35025.9,40246.2
35032.9,40252.5
35039.2,40259.5
35044.9,40267.1
35049.7,40275.1
35053.7,40283.7
35056.9,40292.5
35059.2,40301.7
35060.6,40311
35061,40320.4
35061,40679.6
35060.6,40689
35059.2,40698.3
35056.9,40707.5
35053.7,40716.3
35049.7,40724.9
35044.9,40732.9
35039.2,40740.5
35032.9,40747.5
35025.9,40753.8
35018.4,40759.4
35010.3,40764.3
35001.8,40768.3
34992.9,40771.5
34983.8,40773.7
34974.5,40775.1
34965.1,40775.6
34773.1,40775.6
34763.7,40775.1
34754.4,40773.7
34745.3,40771.5
34736.4,40768.3
34727.9,40764.3
34719.8,40759.4
34712.3,40753.8
34705.3,40747.5
34698.9,40740.5
34693.3,40732.9
34688.5,40724.9
34684.5,40716.3
34681.3,40707.5
34679,40698.3
34677.6,40689
34677.2,40679.6
34677.2,40320.4
34677.6,40311
34679,40301.7
34681.3,40292.5
34684.5,40283.7
34688.5,40275.1
34693.3,40267.1
34698.9,40259.5
34705.3,40252.5
34712.3,40246.2
34719.8,40240.6
34727.9,40235.7
34736.4,40231.7
34745.3,40228.5
34754.4,40226.3
34763.7,40224.9
34773.1,40224.4
34965.1,40224.4
Z" /> 
</g>
<g >
</g>
<g style="fill:#000000; fill-opacity:1.0; 
stroke:#000000; stroke-width:0; stroke-opacity:1; 
stroke-linecap:round; stroke-linejoin:round;">
<path style="fill:#000000; fill-opacity:1.0; 
stroke:#000000; stroke-width:0; stroke-opacity:1; 
stroke-linecap:round; stroke-linejoin:round;fill-rule:evenodd;"
d="M 34367.2,26224.9
34376.5,26226.3
34385.6,26228.5
34394.5,26231.7
34403,26235.7
34411.1,26240.6
34418.7,26246.2
34425.6,26252.5
34432,26259.5
34437.6,26267.1
34442.4,26275.1
34446.4,26283.6
34449.6,26292.5
34451.9,26301.7
34453.3,26311
34453.7,26320.4
34453.7,26679.6
34453.3,26689
34451.9,26698.3
34449.6,26707.5
34446.4,26716.3
34442.4,26724.9
34437.6,26732.9
34432,26740.5
34425.6,26747.5
34418.7,26753.8
34411.1,26759.4
34403,26764.3
34394.5,26768.3
34385.6,26771.5
34376.5,26773.7
34367.2,26775.1
34357.8,26775.6
34165.8,26775.6
34156.4,26775.1
34147.1,26773.7
34138,26771.5
34129.1,26768.3
34120.6,26764.3
34112.5,26759.4
34105,26753.8
34098,26747.5
34091.7,26740.5
34086.1,26732.9
34081.2,26724.9
34077.2,26716.3
34074,26707.5
34071.7,26698.3
34070.3,26689
34069.9,26679.6
34069.9,26320.4
34070.3,26311
34071.7,26301.7
34074,26292.5
34077.2,26283.6
34081.2,26275.1
34086.1,26267.1
34091.7,26259.5
34098,26252.5
34105,26246.2
34112.5,26240.6
34120.6,26235.7
34129.1,26231.7
34138,26228.5
34147.1,26226.3
34156.4,26224.9
34165.8,26224.4
34357.8,26224.4
Z" /> 
<path style="fill:#000000; fill-opacity:1.0; 
stroke:#000000; stroke-width:0; stroke-opacity:1; 
stroke-linecap:round; stroke-linejoin:round;fill-rule:evenodd;"
d="M 35105.4,26224.9
35114.7,26226.3
35123.8,26228.5
35132.7,26231.7
35141.2,26235.7
35149.3,26240.6
35156.8,26246.2
35163.8,26252.5
35170.1,26259.5
35175.8,26267.1
35180.6,26275.1
35184.6,26283.6
35187.8,26292.5
35190.1,26301.7
35191.5,26311
35191.9,26320.4
35191.9,26679.6
35191.5,26689
35190.1,26698.3
35187.8,26707.5
35184.6,26716.3
35180.6,26724.9
35175.8,26732.9
35170.1,26740.5
35163.8,26747.5
35156.8,26753.8
35149.3,26759.4
35141.2,26764.3
35132.7,26768.3
35123.8,26771.5
35114.7,26773.7
35105.4,26775.1
35096,26775.6
34904,26775.6
34894.6,26775.1
34885.3,26773.7
34876.2,26771.5
34867.3,26768.3
34858.8,26764.3
34850.7,26759.4
34843.2,26753.8
34836.2,26747.5
34829.9,26740.5
34824.2,26732.9
34819.4,26724.9
34815.4,26716.3
34812.2,26707.5
34809.9,26698.3
34808.5,26689
34808.1,26679.6
34808.1,26320.4
34808.5,26311
34809.9,26301.7
34812.2,26292.5
34815.4,26283.6
34819.4,26275.1
34824.2,26267.1
34829.9,26259.5
34836.2,26252.5
34843.2,26246.2
34850.7,26240.6
34858.8,26235.7
34867.3,26231.7
34876.2,26228.5
34885.3,26226.3
34894.6,26224.9
34904,26224.4
35096,26224.4
Z" /> 
</g>
<g >
</g>
<g style="fill:#000000; fill-opacity:1.0; 
stroke:#000000; stroke-width:0; stroke-opacity:1; 
stroke-linecap:round; stroke-linejoin:round;">
<path style="fill:#000000; fill-opacity:1.0; 
stroke:#000000; stroke-width:0; stroke-opacity:1; 
stroke-linecap:round; stroke-linejoin:round;fill-rule:evenodd;"
d="M 34236.3,41224.9
34245.6,41226.3
34254.7,41228.5
34263.6,41231.7
34272.1,41235.7
34280.2,41240.6
34287.7,41246.2
34294.7,41252.5
34301.1,41259.5
34306.7,41267.1
34311.5,41275.1
34315.5,41283.7
34318.7,41292.5
34321,41301.7
34322.4,41311
34322.8,41320.4
34322.8,41679.6
34322.4,41689
34321,41698.3
34318.7,41707.5
34315.5,41716.3
34311.5,41724.9
34306.7,41732.9
34301.1,41740.5
34294.7,41747.5
34287.7,41753.8
34280.2,41759.4
34272.1,41764.3
34263.6,41768.3
34254.7,41771.5
34245.6,41773.7
34236.3,41775.1
34226.9,41775.6
34034.9,41775.6
34025.5,41775.1
34016.2,41773.7
34007.1,41771.5
33998.2,41768.3
33989.7,41764.3
33981.6,41759.4
33974.1,41753.8
33967.1,41747.5
33960.8,41740.5
33955.1,41732.9
33950.3,41724.9
33946.3,41716.3
33943.1,41707.5
33940.8,41698.3
33939.4,41689
33939,41679.6
33939,41320.4
33939.4,41311
33940.8,41301.7
33943.1,41292.5
33946.3,41283.7
33950.3,41275.1
33955.1,41267.1
33960.8,41259.5
33967.1,41252.5
33974.1,41246.2
33981.6,41240.6
33989.7,41235.7
33998.2,41231.7
34007.1,41228.5
34016.2,41226.3
34025.5,41224.9
34034.9,41224.4
34226.9,41224.4
Z" /> 
<path style="fill:#000000; fill-opacity:1.0; 
stroke:#000000; stroke-width:0; stroke-opacity:1; 
stroke-linecap:round; stroke-linejoin:round;fill-rule:evenodd;"
d="M 34974.5,41224.9
34983.8,41226.3
34992.9,41228.5
35001.8,41231.7
35010.3,41235.7
35018.4,41240.6
35025.9,41246.2
35032.9,41252.5
35039.2,41259.5
35044.9,41267.1
35049.7,41275.1
35053.7,41283.7
35056.9,41292.5
35059.2,41301.7
35060.6,41311
35061,41320.4
35061,41679.6
35060.6,41689
35059.2,41698.3
35056.9,41707.5
35053.7,41716.3
35049.7,41724.9
35044.9,41732.9
35039.2,41740.5
35032.9,41747.5
35025.9,41753.8
35018.4,41759.4
35010.3,41764.3
35001.8,41768.3
34992.9,41771.5
34983.8,41773.7
34974.5,41775.1
34965.1,41775.6
34773.1,41775.6
34763.7,41775.1
34754.4,41773.7
34745.3,41771.5
34736.4,41768.3
34727.9,41764.3
34719.8,41759.4
34712.3,41753.8
34705.3,41747.5
34698.9,41740.5
34693.3,41732.9
34688.5,41724.9
34684.5,41716.3
34681.3,41707.5
34679,41698.3
34677.6,41689
34677.2,41679.6
34677.2,41320.4
34677.6,41311
34679,41301.7
34681.3,41292.5
34684.5,41283.7
34688.5,41275.1
34693.3,41267.1
34698.9,41259.5
34705.3,41252.5
34712.3,41246.2
34719.8,41240.6
34727.9,41235.7
34736.4,41231.7
34745.3,41228.5
34754.4,41226.3
34763.7,41224.9
34773.1,41224.4
34965.1,41224.4
Z" /> 
</g>
<g >
</g>
<g style="fill:#000000; fill-opacity:1.0; 
stroke:#000000; stroke-width:0; stroke-opacity:1; 
stroke-linecap:round; stroke-linejoin:round;">
<path style="fill:#000000; fill-opacity:1.0; 
stroke:#000000; stroke-width:0; stroke-opacity:1; 
stroke-linecap:round; stroke-linejoin:round;fill-rule:evenodd;"
d="M 34974.5,27224.9
34983.8,27226.3
34992.9,27228.5
35001.8,27231.7
35010.3,27235.7
35018.4,27240.6
35025.9,27246.2
35032.9,27252.5
35039.2,27259.5
35044.9,27267.1
35049.7,27275.1
35053.7,27283.6
35056.9,27292.5
35059.2,27301.7
35060.6,27311
35061,27320.4
35061,27679.6
35060.6,27689
35059.2,27698.3
35056.9,27707.5
35053.7,27716.3
35049.7,27724.9
35044.9,27732.9
35039.2,27740.5
35032.9,27747.5
35025.9,27753.8
35018.4,27759.4
35010.3,27764.3
35001.8,27768.3
34992.9,27771.5
34983.8,27773.7
34974.5,27775.1
34965.1,27775.6
34773.1,27775.6
34763.7,27775.1
34754.4,27773.7
34745.3,27771.5
34736.4,27768.3
34727.9,27764.3
34719.8,27759.4
34712.3,27753.8
34705.3,27747.5
34698.9,27740.5
34693.3,27732.9
34688.5,27724.9
34684.5,27716.3
34681.3,27707.5
34679,27698.3
34677.6,27689
34677.2,27679.6
34677.2,27320.4
34677.6,27311
34679,27301.7
34681.3,27292.5
34684.5,27283.6
34688.5,27275.1
34693.3,27267.1
34698.9,27259.5
34705.3,27252.5
34712.3,27246.2
34719.8,27240.6
34727.9,27235.7
34736.4,27231.7
34745.3,27228.5
34754.4,27226.3
34763.7,27224.9
34773.1,27224.4
34965.1,27224.4
Z" /> 
<path style="fill:#000000; fill-opacity:1.0; 
stroke:#000000; stroke-width:0; stroke-opacity:1; 
stroke-linecap:round; stroke-linejoin:round;fill-rule:evenodd;"
d="M 34236.3,27224.9
34245.6,27226.3
34254.7,27228.5
34263.6,27231.7
34272.1,27235.7
34280.2,27240.6
34287.7,27246.2
34294.7,27252.5
34301.1,27259.5
34306.7,27267.1
34311.5,27275.1
34315.5,27283.6
34318.7,27292.5
34321,27301.7
34322.4,27311
34322.8,27320.4
34322.8,27679.6
34322.4,27689
34321,27698.3
34318.7,27707.5
34315.5,27716.3
34311.5,27724.9
34306.7,27732.9
34301.1,27740.5
34294.7,27747.5
34287.7,27753.8
34280.2,27759.4
34272.1,27764.3
34263.6,27768.3
34254.7,27771.5
34245.6,27773.7
34236.3,27775.1
34226.9,27775.6
34034.9,27775.6
34025.5,27775.1
34016.2,27773.7
34007.1,27771.5
33998.2,27768.3
33989.7,27764.3
33981.6,27759.4
33974.1,27753.8
33967.1,27747.5
33960.8,27740.5
33955.1,27732.9
33950.3,27724.9
33946.3,27716.3
33943.1,27707.5
33940.8,27698.3
33939.4,27689
33939,27679.6
33939,27320.4
33939.4,27311
33940.8,27301.7
33943.1,27292.5
33946.3,27283.6
33950.3,27275.1
33955.1,27267.1
33960.8,27259.5
33967.1,27252.5
33974.1,27246.2
33981.6,27240.6
33989.7,27235.7
33998.2,27231.7
34007.1,27228.5
34016.2,27226.3
34025.5,27224.9
34034.9,27224.4
34226.9,27224.4
Z" /> 
</g>
<g >
</g>
<g style="fill:#000000; fill-opacity:1.0; 
stroke:#000000; stroke-width:0; stroke-opacity:1; 
stroke-linecap:round; stroke-linejoin:round;">
<path style="fill:#000000; fill-opacity:1.0; 
stroke:#000000; stroke-width:0; stroke-opacity:1; 
stroke-linecap:round; stroke-linejoin:round;fill-rule:evenodd;"
d="M 24974.5,41224.9
24983.8,41226.3
24992.9,41228.5
25001.8,41231.7
25010.3,41235.7
25018.4,41240.6
25025.9,41246.2
25032.9,41252.5
25039.2,41259.5
25044.9,41267.1
25049.7,41275.1
25053.7,41283.7
25056.9,41292.5
25059.2,41301.7
25060.6,41311
25061,41320.4
25061,41679.6
25060.6,41689
25059.2,41698.3
25056.9,41707.5
25053.7,41716.3
25049.7,41724.9
25044.9,41732.9
25039.2,41740.5
25032.9,41747.5
25025.9,41753.8
25018.4,41759.4
25010.3,41764.3
25001.8,41768.3
24992.9,41771.5
24983.8,41773.7
24974.5,41775.1
24965.1,41775.6
24773.1,41775.6
24763.7,41775.1
24754.4,41773.7
24745.3,41771.5
24736.4,41768.3
24727.9,41764.3
24719.8,41759.4
24712.3,41753.8
24705.3,41747.5
24698.9,41740.5
24693.3,41732.9
24688.5,41724.9
24684.5,41716.3
24681.3,41707.5
24679,41698.3
24677.6,41689
24677.2,41679.6
24677.2,41320.4
24677.6,41311
24679,41301.7
24681.3,41292.5
24684.5,41283.7
24688.5,41275.1
24693.3,41267.1
24698.9,41259.5
24705.3,41252.5
24712.3,41246.2
24719.8,41240.6
24727.9,41235.7
24736.4,41231.7
24745.3,41228.5
24754.4,41226.3
24763.7,41224.9
24773.1,41224.4
24965.1,41224.4
Z" /> 
<path style="fill:#000000; fill-opacity:1.0; 
stroke:#000000; stroke-width:0; stroke-opacity:1; 
stroke-linecap:round; stroke-linejoin:round;fill-rule:evenodd;"
d="M 24236.3,41224.9
24245.6,41226.3
24254.7,41228.5
24263.6,41231.7
24272.1,41235.7
24280.2,41240.6
24287.7,41246.2
24294.7,41252.5
24301.1,41259.5
24306.7,41267.1
24311.5,41275.1
24315.5,41283.7
24318.7,41292.5
24321,41301.7
24322.4,41311
24322.8,41320.4
24322.8,41679.6
24322.4,41689
24321,41698.3
24318.7,41707.5
24315.5,41716.3
24311.5,41724.9
24306.7,41732.9
24301.1,41740.5
24294.7,41747.5
24287.7,41753.8
24280.2,41759.4
24272.1,41764.3
24263.6,41768.3
24254.7,41771.5
24245.6,41773.7
24236.3,41775.1
24226.9,41775.6
24034.9,41775.6
24025.5,41775.1
24016.2,41773.7
24007.1,41771.5
23998.2,41768.3
23989.7,41764.3
23981.6,41759.4
23974.1,41753.8
23967.1,41747.5
23960.8,41740.5
23955.1,41732.9
23950.3,41724.9
23946.3,41716.3
23943.1,41707.5
23940.8,41698.3
23939.4,41689
23939,41679.6
23939,41320.4
23939.4,41311
23940.8,41301.7
23943.1,41292.5
23946.3,41283.7
23950.3,41275.1
23955.1,41267.1
23960.8,41259.5
23967.1,41252.5
23974.1,41246.2
23981.6,41240.6
23989.7,41235.7
23998.2,41231.7
24007.1,41228.5
24016.2,41226.3
24025.5,41224.9
24034.9,41224.4
24226.9,41224.4
Z" /> 
</g>
<g >
</g>
<g style="fill:#000000; fill-opacity:1.0; 
stroke:#000000; stroke-width:0; stroke-opacity:1; 
stroke-linecap:round; stroke-linejoin:round;">
<path style="fill:#000000; fill-opacity:1.0; 
stroke:#000000; stroke-width:0; stroke-opacity:1; 
stroke-linecap:round; stroke-linejoin:round;fill-rule:evenodd;"
d="M 24474.5,27224.9
24483.8,27226.3
24492.9,27228.5
24501.8,27231.7
24510.3,27235.7
24518.4,27240.6
24525.9,27246.2
24532.9,27252.5
24539.2,27259.5
24544.9,27267.1
24549.7,27275.1
24553.7,27283.6
24556.9,27292.5
24559.2,27301.7
24560.6,27311
24561,27320.4
24561,27679.6
24560.6,27689
24559.2,27698.3
24556.9,27707.5
24553.7,27716.3
24549.7,27724.9
24544.9,27732.9
24539.2,27740.5
24532.9,27747.5
24525.9,27753.8
24518.4,27759.4
24510.3,27764.3
24501.8,27768.3
24492.9,27771.5
24483.8,27773.7
24474.5,27775.1
24465.1,27775.6
24273.1,27775.6
24263.7,27775.1
24254.4,27773.7
24245.3,27771.5
24236.4,27768.3
24227.9,27764.3
24219.8,27759.4
24212.3,27753.8
24205.3,27747.5
24198.9,27740.5
24193.3,27732.9
24188.5,27724.9
24184.5,27716.3
24181.3,27707.5
24179,27698.3
24177.6,27689
24177.2,27679.6
24177.2,27320.4
24177.6,27311
24179,27301.7
24181.3,27292.5
24184.5,27283.6
24188.5,27275.1
24193.3,27267.1
24198.9,27259.5
24205.3,27252.5
24212.3,27246.2
24219.8,27240.6
24227.9,27235.7
24236.4,27231.7
24245.3,27228.5
24254.4,27226.3
24263.7,27224.9
24273.1,27224.4
24465.1,27224.4
Z" /> 
<path style="fill:#000000; fill-opacity:1.0; 
stroke:#000000; stroke-width:0; stroke-opacity:1; 
stroke-linecap:round; stroke-linejoin:round;fill-rule:evenodd;"
d="M 23736.3,27224.9
23745.6,27226.3
23754.7,27228.5
23763.6,27231.7
23772.1,27235.7
23780.2,27240.6
23787.7,27246.2
23794.7,27252.5
23801.1,27259.5
23806.7,27267.1
23811.5,27275.1
23815.5,27283.6
23818.7,27292.5
23821,27301.7
23822.4,27311
23822.8,27320.4
23822.8,27679.6
23822.4,27689
23821,27698.3
23818.7,27707.5
23815.5,27716.3
23811.5,27724.9
23806.7,27732.9
23801.1,27740.5
23794.7,27747.5
23787.7,27753.8
23780.2,27759.4
23772.1,27764.3
23763.6,27768.3
23754.7,27771.5
23745.6,27773.7
23736.3,27775.1
23726.9,27775.6
23534.9,27775.6
23525.5,27775.1
23516.2,27773.7
23507.1,27771.5
23498.2,27768.3
23489.7,27764.3
23481.6,27759.4
23474.1,27753.8
23467.1,27747.5
23460.8,27740.5
23455.1,27732.9
23450.3,27724.9
23446.3,27716.3
23443.1,27707.5
23440.8,27698.3
23439.4,27689
23439,27679.6
23439,27320.4
23439.4,27311
23440.8,27301.7
23443.1,27292.5
23446.3,27283.6
23450.3,27275.1
23455.1,27267.1
23460.8,27259.5
23467.1,27252.5
23474.1,27246.2
23481.6,27240.6
23489.7,27235.7
23498.2,27231.7
23507.1,27228.5
23516.2,27226.3
23525.5,27224.9
23534.9,27224.4
23726.9,27224.4
Z" /> 
</g>
<g >
</g>
<g style="fill:#000000; fill-opacity:1.0; 
stroke:#000000; stroke-width:0; stroke-opacity:1; 
stroke-linecap:round; stroke-linejoin:round;">
<path style="fill:#000000; fill-opacity:1.0; 
stroke:#000000; stroke-width:0; stroke-opacity:1; 
stroke-linecap:round; stroke-linejoin:round;fill-rule:evenodd;"
d="M 24974.5,42224.9
24983.8,42226.3
24992.9,42228.5
25001.8,42231.7
25010.3,42235.7
25018.4,42240.6
25025.9,42246.2
25032.9,42252.5
25039.2,42259.5
25044.9,42267.1
25049.7,42275.1
25053.7,42283.7
25056.9,42292.5
25059.2,42301.7
25060.6,42311
25061,42320.4
25061,42679.6
25060.6,42689
25059.2,42698.3
25056.9,42707.5
25053.7,42716.3
25049.7,42724.9
25044.9,42732.9
25039.2,42740.5
25032.9,42747.5
25025.9,42753.8
25018.4,42759.4
25010.3,42764.3
25001.8,42768.3
24992.9,42771.5
24983.8,42773.7
24974.5,42775.1
24965.1,42775.6
24773.1,42775.6
24763.7,42775.1
24754.4,42773.7
24745.3,42771.5
24736.4,42768.3
24727.9,42764.3
24719.8,42759.4
24712.3,42753.8
24705.3,42747.5
24698.9,42740.5
24693.3,42732.9
24688.5,42724.9
24684.5,42716.3
24681.3,42707.5
24679,42698.3
24677.6,42689
24677.2,42679.6
24677.2,42320.4
24677.6,42311
24679,42301.7
24681.3,42292.5
24684.5,42283.7
24688.5,42275.1
24693.3,42267.1
24698.9,42259.5
24705.3,42252.5
24712.3,42246.2
24719.8,42240.6
24727.9,42235.7
24736.4,42231.7
24745.3,42228.5
24754.4,42226.3
24763.7,42224.9
24773.1,42224.4
24965.1,42224.4
Z" /> 
<path style="fill:#000000; fill-opacity:1.0; 
stroke:#000000; stroke-width:0; stroke-opacity:1; 
stroke-linecap:round; stroke-linejoin:round;fill-rule:evenodd;"
d="M 24236.3,42224.9
24245.6,42226.3
24254.7,42228.5
24263.6,42231.7
24272.1,42235.7
24280.2,42240.6
24287.7,42246.2
24294.7,42252.5
24301.1,42259.5
24306.7,42267.1
24311.5,42275.1
24315.5,42283.7
24318.7,42292.5
24321,42301.7
24322.4,42311
24322.8,42320.4
24322.8,42679.6
24322.4,42689
24321,42698.3
24318.7,42707.5
24315.5,42716.3
24311.5,42724.9
24306.7,42732.9
24301.1,42740.5
24294.7,42747.5
24287.7,42753.8
24280.2,42759.4
24272.1,42764.3
24263.6,42768.3
24254.7,42771.5
24245.6,42773.7
24236.3,42775.1
24226.9,42775.6
24034.9,42775.6
24025.5,42775.1
24016.2,42773.7
24007.1,42771.5
23998.2,42768.3
23989.7,42764.3
23981.6,42759.4
23974.1,42753.8
23967.1,42747.5
23960.8,42740.5
23955.1,42732.9
23950.3,42724.9
23946.3,42716.3
23943.1,42707.5
23940.8,42698.3
23939.4,42689
23939,42679.6
23939,42320.4
23939.4,42311
23940.8,42301.7
23943.1,42292.5
23946.3,42283.7
23950.3,42275.1
23955.1,42267.1
23960.8,42259.5
23967.1,42252.5
23974.1,42246.2
23981.6,42240.6
23989.7,42235.7
23998.2,42231.7
24007.1,42228.5
24016.2,42226.3
24025.5,42224.9
24034.9,42224.4
24226.9,42224.4
Z" /> 
</g>
<g >
</g>
<g style="fill:#000000; fill-opacity:1.0; 
stroke:#000000; stroke-width:0; stroke-opacity:1; 
stroke-linecap:round; stroke-linejoin:round;">
<path style="fill:#000000; fill-opacity:1.0; 
stroke:#000000; stroke-width:0; stroke-opacity:1; 
stroke-linecap:round; stroke-linejoin:round;fill-rule:evenodd;"
d="M 24474.5,28224.9
24483.8,28226.3
24492.9,28228.5
24501.8,28231.7
24510.3,28235.7
24518.4,28240.6
24525.9,28246.2
24532.9,28252.5
24539.2,28259.5
24544.9,28267.1
24549.7,28275.1
24553.7,28283.6
24556.9,28292.5
24559.2,28301.7
24560.6,28311
24561,28320.4
24561,28679.6
24560.6,28689
24559.2,28698.3
24556.9,28707.5
24553.7,28716.3
24549.7,28724.9
24544.9,28732.9
24539.2,28740.5
24532.9,28747.5
24525.9,28753.8
24518.4,28759.4
24510.3,28764.3
24501.8,28768.3
24492.9,28771.5
24483.8,28773.7
24474.5,28775.1
24465.1,28775.6
24273.1,28775.6
24263.7,28775.1
24254.4,28773.7
24245.3,28771.5
24236.4,28768.3
24227.9,28764.3
24219.8,28759.4
24212.3,28753.8
24205.3,28747.5
24198.9,28740.5
24193.3,28732.9
24188.5,28724.9
24184.5,28716.3
24181.3,28707.5
24179,28698.3
24177.6,28689
24177.2,28679.6
24177.2,28320.4
24177.6,28311
24179,28301.7
24181.3,28292.5
24184.5,28283.6
24188.5,28275.1
24193.3,28267.1
24198.9,28259.5
24205.3,28252.5
24212.3,28246.2
24219.8,28240.6
24227.9,28235.7
24236.4,28231.7
24245.3,28228.5
24254.4,28226.3
24263.7,28224.9
24273.1,28224.4
24465.1,28224.4
Z" /> 
<path style="fill:#000000; fill-opacity:1.0; 
stroke:#000000; stroke-width:0; stroke-opacity:1; 
stroke-linecap:round; stroke-linejoin:round;fill-rule:evenodd;"
d="M 23736.3,28224.9
23745.6,28226.3
23754.7,28228.5
23763.6,28231.7
23772.1,28235.7
23780.2,28240.6
23787.7,28246.2
23794.7,28252.5
23801.1,28259.5
23806.7,28267.1
23811.5,28275.1
23815.5,28283.6
23818.7,28292.5
23821,28301.7
23822.4,28311
23822.8,28320.4
23822.8,28679.6
23822.4,28689
23821,28698.3
23818.7,28707.5
23815.5,28716.3
23811.5,28724.9
23806.7,28732.9
23801.1,28740.5
23794.7,28747.5
23787.7,28753.8
23780.2,28759.4
23772.1,28764.3
23763.6,28768.3
23754.7,28771.5
23745.6,28773.7
23736.3,28775.1
23726.9,28775.6
23534.9,28775.6
23525.5,28775.1
23516.2,28773.7
23507.1,28771.5
23498.2,28768.3
23489.7,28764.3
23481.6,28759.4
23474.1,28753.8
23467.1,28747.5
23460.8,28740.5
23455.1,28732.9
23450.3,28724.9
23446.3,28716.3
23443.1,28707.5
23440.8,28698.3
23439.4,28689
23439,28679.6
23439,28320.4
23439.4,28311
23440.8,28301.7
23443.1,28292.5
23446.3,28283.6
23450.3,28275.1
23455.1,28267.1
23460.8,28259.5
23467.1,28252.5
23474.1,28246.2
23481.6,28240.6
23489.7,28235.7
23498.2,28231.7
23507.1,28228.5
23516.2,28226.3
23525.5,28224.9
23534.9,28224.4
23726.9,28224.4
Z" /> 
</g>
<g >
</g>
<g style="fill:#000000; fill-opacity:1.0; 
stroke:#000000; stroke-width:0; stroke-opacity:1; 
stroke-linecap:round; stroke-linejoin:round;">
<path style="fill:#000000; fill-opacity:1.0; 
stroke:#000000; stroke-width:0; stroke-opacity:1; 
stroke-linecap:round; stroke-linejoin:round;fill-rule:evenodd;"
d="M 24974.5,43224.9
24983.8,43226.3
24992.9,43228.5
25001.8,43231.7
25010.3,43235.7
25018.4,43240.6
25025.9,43246.2
25032.9,43252.5
25039.2,43259.5
25044.9,43267.1
25049.7,43275.1
25053.7,43283.7
25056.9,43292.5
25059.2,43301.7
25060.6,43311
25061,43320.4
25061,43679.6
25060.6,43689
25059.2,43698.3
25056.9,43707.5
25053.7,43716.3
25049.7,43724.9
25044.9,43732.9
25039.2,43740.5
25032.9,43747.5
25025.9,43753.8
25018.4,43759.4
25010.3,43764.3
25001.8,43768.3
24992.9,43771.5
24983.8,43773.7
24974.5,43775.1
24965.1,43775.6
24773.1,43775.6
24763.7,43775.1
24754.4,43773.7
24745.3,43771.5
24736.4,43768.3
24727.9,43764.3
24719.8,43759.4
24712.3,43753.8
24705.3,43747.5
24698.9,43740.5
24693.3,43732.9
24688.5,43724.9
24684.5,43716.3
24681.3,43707.5
24679,43698.3
24677.6,43689
24677.2,43679.6
24677.2,43320.4
24677.6,43311
24679,43301.7
24681.3,43292.5
24684.5,43283.7
24688.5,43275.1
24693.3,43267.1
24698.9,43259.5
24705.3,43252.5
24712.3,43246.2
24719.8,43240.6
24727.9,43235.7
24736.4,43231.7
24745.3,43228.5
24754.4,43226.3
24763.7,43224.9
24773.1,43224.4
24965.1,43224.4
Z" /> 
<path style="fill:#000000; fill-opacity:1.0; 
stroke:#000000; stroke-width:0; stroke-opacity:1; 
stroke-linecap:round; stroke-linejoin:round;fill-rule:evenodd;"
d="M 24236.3,43224.9
24245.6,43226.3
24254.7,43228.5
24263.6,43231.7
24272.1,43235.7
24280.2,43240.6
24287.7,43246.2
24294.7,43252.5
24301.1,43259.5
24306.7,43267.1
24311.5,43275.1
24315.5,43283.7
24318.7,43292.5
24321,43301.7
24322.4,43311
24322.8,43320.4
24322.8,43679.6
24322.4,43689
24321,43698.3
24318.7,43707.5
24315.5,43716.3
24311.5,43724.9
24306.7,43732.9
24301.1,43740.5
24294.7,43747.5
24287.7,43753.8
24280.2,43759.4
24272.1,43764.3
24263.6,43768.3
24254.7,43771.5
24245.6,43773.7
24236.3,43775.1
24226.9,43775.6
24034.9,43775.6
24025.5,43775.1
24016.2,43773.7
24007.1,43771.5
23998.2,43768.3
23989.7,43764.3
23981.6,43759.4
23974.1,43753.8
23967.1,43747.5
23960.8,43740.5
23955.1,43732.9
23950.3,43724.9
23946.3,43716.3
23943.1,43707.5
23940.8,43698.3
23939.4,43689
23939,43679.6
23939,43320.4
23939.4,43311
23940.8,43301.7
23943.1,43292.5
23946.3,43283.7
23950.3,43275.1
23955.1,43267.1
23960.8,43259.5
23967.1,43252.5
23974.1,43246.2
23981.6,43240.6
23989.7,43235.7
23998.2,43231.7
24007.1,43228.5
24016.2,43226.3
24025.5,43224.9
24034.9,43224.4
24226.9,43224.4
Z" /> 
</g>
<g >
</g>
<g style="fill:#000000; fill-opacity:1.0; 
stroke:#000000; stroke-width:0; stroke-opacity:1; 
stroke-linecap:round; stroke-linejoin:round;">
<path style="fill:#000000; fill-opacity:1.0; 
stroke:#000000; stroke-width:0; stroke-opacity:1; 
stroke-linecap:round; stroke-linejoin:round;fill-rule:evenodd;"
d="M 24474.5,29224.9
24483.8,29226.3
24492.9,29228.5
24501.8,29231.7
24510.3,29235.7
24518.4,29240.6
24525.9,29246.2
24532.9,29252.5
24539.2,29259.5
24544.9,29267.1
24549.7,29275.1
24553.7,29283.6
24556.9,29292.5
24559.2,29301.7
24560.6,29311
24561,29320.4
24561,29679.6
24560.6,29689
24559.2,29698.3
24556.9,29707.5
24553.7,29716.3
24549.7,29724.9
24544.9,29732.9
24539.2,29740.5
24532.9,29747.5
24525.9,29753.8
24518.4,29759.4
24510.3,29764.3
24501.8,29768.3
24492.9,29771.5
24483.8,29773.7
24474.5,29775.1
24465.1,29775.6
24273.1,29775.6
24263.7,29775.1
24254.4,29773.7
24245.3,29771.5
24236.4,29768.3
24227.9,29764.3
24219.8,29759.4
24212.3,29753.8
24205.3,29747.5
24198.9,29740.5
24193.3,29732.9
24188.5,29724.9
24184.5,29716.3
24181.3,29707.5
24179,29698.3
24177.6,29689
24177.2,29679.6
24177.2,29320.4
24177.6,29311
24179,29301.7
24181.3,29292.5
24184.5,29283.6
24188.5,29275.1
24193.3,29267.1
24198.9,29259.5
24205.3,29252.5
24212.3,29246.2
24219.8,29240.6
24227.9,29235.7
24236.4,29231.7
24245.3,29228.5
24254.4,29226.3
24263.7,29224.9
24273.1,29224.4
24465.1,29224.4
Z" /> 
<path style="fill:#000000; fill-opacity:1.0; 
stroke:#000000; stroke-width:0; stroke-opacity:1; 
stroke-linecap:round; stroke-linejoin:round;fill-rule:evenodd;"
d="M 23736.3,29224.9
23745.6,29226.3
23754.7,29228.5
23763.6,29231.7
23772.1,29235.7
23780.2,29240.6
23787.7,29246.2
23794.7,29252.5
23801.1,29259.5
23806.7,29267.1
23811.5,29275.1
23815.5,29283.6
23818.7,29292.5
23821,29301.7
23822.4,29311
23822.8,29320.4
23822.8,29679.6
23822.4,29689
23821,29698.3
23818.7,29707.5
23815.5,29716.3
23811.5,29724.9
23806.7,29732.9
23801.1,29740.5
23794.7,29747.5
23787.7,29753.8
23780.2,29759.4
23772.1,29764.3
23763.6,29768.3
23754.7,29771.5
23745.6,29773.7
23736.3,29775.1
23726.9,29775.6
23534.9,29775.6
23525.5,29775.1
23516.2,29773.7
23507.1,29771.5
23498.2,29768.3
23489.7,29764.3
23481.6,29759.4
23474.1,29753.8
23467.1,29747.5
23460.8,29740.5
23455.1,29732.9
23450.3,29724.9
23446.3,29716.3
23443.1,29707.5
23440.8,29698.3
23439.4,29689
23439,29679.6
23439,29320.4
23439.4,29311
23440.8,29301.7
23443.1,29292.5
23446.3,29283.6
23450.3,29275.1
23455.1,29267.1
23460.8,29259.5
23467.1,29252.5
23474.1,29246.2
23481.6,29240.6
23489.7,29235.7
23498.2,29231.7
23507.1,29228.5
23516.2,29226.3
23525.5,29224.9
23534.9,29224.4
23726.9,29224.4
Z" /> 
</g>
<g >
</g>
<g style="fill:#000000; fill-opacity:1.0; 
stroke:#000000; stroke-width:0; stroke-opacity:1; 
stroke-linecap:round; stroke-linejoin:round;">
<path style="fill:#000000; fill-opacity:1.0; 
stroke:#000000; stroke-width:0; stroke-opacity:1; 
stroke-linecap:round; stroke-linejoin:round;fill-rule:evenodd;"
d="M 24974.5,44224.9
24983.8,44226.3
24992.9,44228.5
25001.8,44231.7
25010.3,44235.7
25018.4,44240.6
25025.9,44246.2
25032.9,44252.5
25039.2,44259.5
25044.9,44267.1
25049.7,44275.1
25053.7,44283.7
25056.9,44292.5
25059.2,44301.7
25060.6,44311
25061,44320.4
25061,44679.6
25060.6,44689
25059.2,44698.3
25056.9,44707.5
25053.7,44716.3
25049.7,44724.9
25044.9,44732.9
25039.2,44740.5
25032.9,44747.5
25025.9,44753.8
25018.4,44759.4
25010.3,44764.3
25001.8,44768.3
24992.9,44771.5
24983.8,44773.7
24974.5,44775.1
24965.1,44775.6
24773.1,44775.6
24763.7,44775.1
24754.4,44773.7
24745.3,44771.5
24736.4,44768.3
24727.9,44764.3
24719.8,44759.4
24712.3,44753.8
24705.3,44747.5
24698.9,44740.5
24693.3,44732.9
24688.5,44724.9
24684.5,44716.3
24681.3,44707.5
24679,44698.3
24677.6,44689
24677.2,44679.6
24677.2,44320.4
24677.6,44311
24679,44301.7
24681.3,44292.5
24684.5,44283.7
24688.5,44275.1
24693.3,44267.1
24698.9,44259.5
24705.3,44252.5
24712.3,44246.2
24719.8,44240.6
24727.9,44235.7
24736.4,44231.7
24745.3,44228.5
24754.4,44226.3
24763.7,44224.9
24773.1,44224.4
24965.1,44224.4
Z" /> 
<path style="fill:#000000; fill-opacity:1.0; 
stroke:#000000; stroke-width:0; stroke-opacity:1; 
stroke-linecap:round; stroke-linejoin:round;fill-rule:evenodd;"
d="M 24236.3,44224.9
24245.6,44226.3
24254.7,44228.5
24263.6,44231.7
24272.1,44235.7
24280.2,44240.6
24287.7,44246.2
24294.7,44252.5
24301.1,44259.5
24306.7,44267.1
24311.5,44275.1
24315.5,44283.7
24318.7,44292.5
24321,44301.7
24322.4,44311
24322.8,44320.4
24322.8,44679.6
24322.4,44689
24321,44698.3
24318.7,44707.5
24315.5,44716.3
24311.5,44724.9
24306.7,44732.9
24301.1,44740.5
24294.7,44747.5
24287.7,44753.8
24280.2,44759.4
24272.1,44764.3
24263.6,44768.3
24254.7,44771.5
24245.6,44773.7
24236.3,44775.1
24226.9,44775.6
24034.9,44775.6
24025.5,44775.1
24016.2,44773.7
24007.1,44771.5
23998.2,44768.3
23989.7,44764.3
23981.6,44759.4
23974.1,44753.8
23967.1,44747.5
23960.8,44740.5
23955.1,44732.9
23950.3,44724.9
23946.3,44716.3
23943.1,44707.5
23940.8,44698.3
23939.4,44689
23939,44679.6
23939,44320.4
23939.4,44311
23940.8,44301.7
23943.1,44292.5
23946.3,44283.7
23950.3,44275.1
23955.1,44267.1
23960.8,44259.5
23967.1,44252.5
23974.1,44246.2
23981.6,44240.6
23989.7,44235.7
23998.2,44231.7
24007.1,44228.5
24016.2,44226.3
24025.5,44224.9
24034.9,44224.4
24226.9,44224.4
Z" /> 
</g>
<g >
</g>
<g style="fill:#000000; fill-opacity:1.0; 
stroke:#000000; stroke-width:0; stroke-opacity:1; 
stroke-linecap:round; stroke-linejoin:round;">
<path style="fill:#000000; fill-opacity:1.0; 
stroke:#000000; stroke-width:0; stroke-opacity:1; 
stroke-linecap:round; stroke-linejoin:round;fill-rule:evenodd;"
d="M 24474.5,30224.9
24483.8,30226.3
24492.9,30228.5
24501.8,30231.7
24510.3,30235.7
24518.4,30240.6
24525.9,30246.2
24532.9,30252.5
24539.2,30259.5
24544.9,30267.1
24549.7,30275.1
24553.7,30283.6
24556.9,30292.5
24559.2,30301.7
24560.6,30311
24561,30320.4
24561,30679.6
24560.6,30689
24559.2,30698.3
24556.9,30707.5
24553.7,30716.3
24549.7,30724.9
24544.9,30732.9
24539.2,30740.5
24532.9,30747.5
24525.9,30753.8
24518.4,30759.4
24510.3,30764.3
24501.8,30768.3
24492.9,30771.5
24483.8,30773.7
24474.5,30775.1
24465.1,30775.6
24273.1,30775.6
24263.7,30775.1
24254.4,30773.7
24245.3,30771.5
24236.4,30768.3
24227.9,30764.3
24219.8,30759.4
24212.3,30753.8
24205.3,30747.5
24198.9,30740.5
24193.3,30732.9
24188.5,30724.9
24184.5,30716.3
24181.3,30707.5
24179,30698.3
24177.6,30689
24177.2,30679.6
24177.2,30320.4
24177.6,30311
24179,30301.7
24181.3,30292.5
24184.5,30283.6
24188.5,30275.1
24193.3,30267.1
24198.9,30259.5
24205.3,30252.5
24212.3,30246.2
24219.8,30240.6
24227.9,30235.7
24236.4,30231.7
24245.3,30228.5
24254.4,30226.3
24263.7,30224.9
24273.1,30224.4
24465.1,30224.4
Z" /> 
<path style="fill:#000000; fill-opacity:1.0; 
stroke:#000000; stroke-width:0; stroke-opacity:1; 
stroke-linecap:round; stroke-linejoin:round;fill-rule:evenodd;"
d="M 23736.3,30224.9
23745.6,30226.3
23754.7,30228.5
23763.6,30231.7
23772.1,30235.7
23780.2,30240.6
23787.7,30246.2
23794.7,30252.5
23801.1,30259.5
23806.7,30267.1
23811.5,30275.1
23815.5,30283.6
23818.7,30292.5
23821,30301.7
23822.4,30311
23822.8,30320.4
23822.8,30679.6
23822.4,30689
23821,30698.3
23818.7,30707.5
23815.5,30716.3
23811.5,30724.9
23806.7,30732.9
23801.1,30740.5
23794.7,30747.5
23787.7,30753.8
23780.2,30759.4
23772.1,30764.3
23763.6,30768.3
23754.7,30771.5
23745.6,30773.7
23736.3,30775.1
23726.9,30775.6
23534.9,30775.6
23525.5,30775.1
23516.2,30773.7
23507.1,30771.5
23498.2,30768.3
23489.7,30764.3
23481.6,30759.4
23474.1,30753.8
23467.1,30747.5
23460.8,30740.5
23455.1,30732.9
23450.3,30724.9
23446.3,30716.3
23443.1,30707.5
23440.8,30698.3
23439.4,30689
23439,30679.6
23439,30320.4
23439.4,30311
23440.8,30301.7
23443.1,30292.5
23446.3,30283.6
23450.3,30275.1
23455.1,30267.1
23460.8,30259.5
23467.1,30252.5
23474.1,30246.2
23481.6,30240.6
23489.7,30235.7
23498.2,30231.7
23507.1,30228.5
23516.2,30226.3
23525.5,30224.9
23534.9,30224.4
23726.9,30224.4
Z" /> 
</g>
<g >
</g>
<g style="fill:#000000; fill-opacity:1.0; 
stroke:#000000; stroke-width:0; stroke-opacity:1; 
stroke-linecap:round; stroke-linejoin:round;">
</g>
<g style="fill:#000000; fill-opacity:1.0; 
stroke:#000000; stroke-width:669.291; stroke-opacity:1; 
stroke-linecap:round; stroke-linejoin:round;">
</g>
<g style="fill:#000000; fill-opacity:0.0; 
stroke:#000000; stroke-width:669.291; stroke-opacity:1; 
stroke-linecap:round; stroke-linejoin:round;">
<path d="M31500 35000
L31500 35000
" />
<path d="M30500 35000
L30500 35000
" />
<path d="M29500 35000
L29500 35000
" />
<path d="M28500 35000
L28500 35000
" />
</g>
<g style="fill:#000000; fill-opacity:0.0; 
stroke:#000000; stroke-width:0; stroke-opacity:1; 
stroke-linecap:round; stroke-linejoin:round;">
</g>
<g style="fill:#000000; fill-opacity:1.0; 
stroke:#000000; stroke-width:0; stroke-opacity:1; 
stroke-linecap:round; stroke-linejoin:round;">
<path style="fill:#000000; fill-opacity:1.0; 
stroke:#000000; stroke-width:0; stroke-opacity:1; 
stroke-linecap:round; stroke-linejoin:round;fill-rule:evenodd;"
d="M 27834.6,35334.6
27165.4,35334.6
27165.4,34665.4
27834.6,34665.4
Z" /> 
</g>
<g >
</g>
<g style="fill:#000000; fill-opacity:1.0; 
stroke:#000000; stroke-width:0; stroke-opacity:1; 
stroke-linecap:round; stroke-linejoin:round;">
<circle cx="25500" cy="30500" r="393.701" /> 
</g>
<g style="fill:#000000; fill-opacity:1.0; 
stroke:#000000; stroke-width:39.3701; stroke-opacity:1; 
stroke-linecap:round; stroke-linejoin:round;">
</g>
<g style="fill:#000000; fill-opacity:1.0; 
stroke:#000000; stroke-width:0; stroke-opacity:1; 
stroke-linecap:round; stroke-linejoin:round;">
<circle cx="26000" cy="44500" r="393.701" /> 
</g>
<g style="fill:#000000; fill-opacity:1.0; 
stroke:#000000; stroke-width:39.3701; stroke-opacity:1; 
stroke-linecap:round; stroke-linejoin:round;">
</g>
<g style="fill:#000000; fill-opacity:1.0; 
stroke:#000000; stroke-width:0; stroke-opacity:1; 
stroke-linecap:round; stroke-linejoin:round;">
<circle cx="25500" cy="29500" r="393.701" /> 
</g>
<g style="fill:#000000; fill-opacity:1.0; 
stroke:#000000; stroke-width:39.3701; stroke-opacity:1; 
stroke-linecap:round; stroke-linejoin:round;">
</g>
<g style="fill:#000000; fill-opacity:1.0; 
stroke:#000000; stroke-width:0; stroke-opacity:1; 
stroke-linecap:round; stroke-linejoin:round;">
<circle cx="26000" cy="43500" r="393.701" /> 
</g>
<g style="fill:#000000; fill-opacity:1.0; 
stroke:#000000; stroke-width:39.3701; stroke-opacity:1; 
stroke-linecap:round; stroke-linejoin:round;">
</g>
<g style="fill:#000000; fill-opacity:1.0; 
stroke:#000000; stroke-width:0; stroke-opacity:1; 
stroke-linecap:round; stroke-linejoin:round;">
<circle cx="25500" cy="28500" r="393.701" /> 
</g>
<g style="fill:#000000; fill-opacity:1.0; 
stroke:#000000; stroke-width:39.3701; stroke-opacity:1; 
stroke-linecap:round; stroke-linejoin:round;">
</g>
<g style="fill:#000000; fill-opacity:1.0; 
stroke:#000000; stroke-width:0; stroke-opacity:1; 
stroke-linecap:round; stroke-linejoin:round;">
<circle cx="26000" cy="42500" r="393.701" /> 
</g>
<g style="fill:#000000; fill-opacity:1.0; 
stroke:#000000; stroke-width:39.3701; stroke-opacity:1; 
stroke-linecap:round; stroke-linejoin:round;">
</g>
<g style="fill:#000000; fill-opacity:1.0; 
stroke:#000000; stroke-width:0; stroke-opacity:1; 
stroke-linecap:round; stroke-linejoin:round;">
<circle cx="25500" cy="27500" r="393.701" /> 
</g>
<g style="fill:#000000; fill-opacity:1.0; 
stroke:#000000; stroke-width:39.3701; stroke-opacity:1; 
stroke-linecap:round; stroke-linejoin:round;">
</g>
<g style="fill:#000000; fill-opacity:1.0; 
stroke:#000000; stroke-width:0; stroke-opacity:1; 
stroke-linecap:round; stroke-linejoin:round;">
<circle cx="26000" cy="41500" r="393.701" /> 
</g>
<g style="fill:#000000; fill-opacity:1.0; 
stroke:#000000; stroke-width:39.3701; stroke-opacity:1; 
stroke-linecap:round; stroke-linejoin:round;">
</g>
<g style="fill:#000000; fill-opacity:1.0; 
stroke:#000000; stroke-width:0; stroke-opacity:1; 
stroke-linecap:round; stroke-linejoin:round;">
<circle cx="33000" cy="27500" r="393.701" /> 
</g>
<g style="fill:#000000; fill-opacity:1.0; 
stroke:#000000; stroke-width:39.3701; stroke-opacity:1; 
stroke-linecap:round; stroke-linejoin:round;">
</g>
<g style="fill:#000000; fill-opacity:1.0; 
stroke:#000000; stroke-width:0; stroke-opacity:1; 
stroke-linecap:round; stroke-linejoin:round;">
<circle cx="33000" cy="41500" r="393.701" /> 
</g>
<g style="fill:#000000; fill-opacity:1.0; 
stroke:#000000; stroke-width:39.3701; stroke-opacity:1; 
stroke-linecap:round; stroke-linejoin:round;">
</g>
<g style="fill:#000000; fill-opacity:1.0; 
stroke:#000000; stroke-width:0; stroke-opacity:1; 
stroke-linecap:round; stroke-linejoin:round;">
<circle cx="33000" cy="26500" r="393.701" /> 
</g>
<g style="fill:#000000; fill-opacity:1.0; 
stroke:#000000; stroke-width:39.3701; stroke-opacity:1; 
stroke-linecap:round; stroke-linejoin:round;">
</g>
<g style="fill:#000000; fill-opacity:1.0; 
stroke:#000000; stroke-width:0; stroke-opacity:1; 
stroke-linecap:round; stroke-linejoin:round;">
<circle cx="33000" cy="40500" r="393.701" /> 
</g>
<g style="fill:#000000; fill-opacity:1.0; 
stroke:#000000; stroke-width:39.3701; stroke-opacity:1; 
stroke-linecap:round; stroke-linejoin:round;">
</g>
<g style="fill:#000000; fill-opacity:1.0; 
stroke:#000000; stroke-width:0; stroke-opacity:1; 
stroke-linecap:round; stroke-linejoin:round;">
<circle cx="33000" cy="25500" r="393.701" /> 
</g>
<g style="fill:#000000; fill-opacity:1.0; 
stroke:#000000; stroke-width:39.3701; stroke-opacity:1; 
stroke-linecap:round; stroke-linejoin:round;">
</g>
<g style="fill:#000000; fill-opacity:1.0; 
stroke:#000000; stroke-width:0; stroke-opacity:1; 
stroke-linecap:round; stroke-linejoin:round;">
<circle cx="33000" cy="39500" r="393.701" /> 
</g>
<g style="fill:#000000; fill-opacity:1.0; 
stroke:#000000; stroke-width:39.3701; stroke-opacity:1; 
stroke-linecap:round; stroke-linejoin:round;">
</g>
<g style="fill:#000000; fill-opacity:1.0; 
stroke:#000000; stroke-width:0; stroke-opacity:1; 
stroke-linecap:round; stroke-linejoin:round;">
<circle cx="25500" cy="24500" r="393.701" /> 
</g>
<g style="fill:#000000; fill-opacity:1.0; 
stroke:#000000; stroke-width:39.3701; stroke-opacity:1; 
stroke-linecap:round; stroke-linejoin:round;">
</g>
<g style="fill:#000000; fill-opacity:1.0; 
stroke:#000000; stroke-width:0; stroke-opacity:1; 
stroke-linecap:round; stroke-linejoin:round;">
<circle cx="26000" cy="38500" r="393.701" /> 
</g>
<g style="fill:#000000; fill-opacity:1.0; 
stroke:#000000; stroke-width:39.3701; stroke-opacity:1; 
stroke-linecap:round; stroke-linejoin:round;">
</g>
<g style="fill:#000000; fill-opacity:1.0; 
stroke:#000000; stroke-width:0; stroke-opacity:1; 
stroke-linecap:round; stroke-linejoin:round;">
<circle cx="33500" cy="36500" r="393.701" /> 
</g>
<g style="fill:#000000; fill-opacity:1.0; 
stroke:#000000; stroke-width:39.3701; stroke-opacity:1; 
stroke-linecap:round; stroke-linejoin:round;">
</g>
<g style="fill:#000000; fill-opacity:1.0; 
stroke:#000000; stroke-width:0; stroke-opacity:1; 
stroke-linecap:round; stroke-linejoin:round;">
<circle cx="27000" cy="40500" r="393.701" /> 
</g>
<g style="fill:#000000; fill-opacity:1.0; 
stroke:#000000; stroke-width:39.3701; stroke-opacity:1; 
stroke-linecap:round; stroke-linejoin:round;">
</g>
<g >
</g>
<g style="fill:#000000; fill-opacity:1.0; 
stroke:#000000; stroke-width:39.3701; stroke-opacity:1; 
stroke-linecap:round; stroke-linejoin:round;">
</g>
<g style="fill:#000000; fill-opacity:1.0; 
stroke:#000000; stroke-width:196.85; stroke-opacity:1; 
stroke-linecap:round; stroke-linejoin:round;">
</g>
<g style="fill:#000000; fill-opacity:0.0; 
stroke:#000000; stroke-width:196.85; stroke-opacity:1; 
stroke-linecap:round; stroke-linejoin:round;">
<path d="M31523 31638
L31523 30460
" />
<path d="M31464 30401
L30795 30401
" />
<path d="M31523 30460
L31464 30401
" />
<path d="M31500 31661
L31523 31638
" />
<path d="M31500 35000
L31500 31661
" />
<path d="M30330 44500
L31000 44500
" />
<path d="M30271 44440
L30330 44500
" />
<path d="M30271 36228
L30271 44440
" />
<path d="M31500 35000
L30271 36228
" />
<path d="M30500 31696
L30795 31401
" />
<path d="M30500 35000
L30500 31696
" />
<path d="M29917 45086
L30330 45500
" />
<path d="M29917 35582
L29917 45086
" />
<path d="M30330 45500
L31000 45500
" />
<path d="M30500 35000
L29917 35582
" />
<path d="M35000 25500
L35000 26500
" />
<path d="M35000 27369
L34869 27500
" />
<path d="M35000 26500
L35000 27369
" />
<path d="M23630 24500
L23630 27500
" />
<path d="M23630 27500
L23630 28500
" />
<path d="M23630 28500
L23630 29500
" />
<path d="M23630 29500
L23630 30500
" />
<path d="M34869 39500
L34869 40500
" />
<path d="M34869 40500
L34869 41500
" />
<path d="M24130 41500
L24130 42500
" />
<path d="M24130 42500
L24130 43500
" />
<path d="M24130 43500
L24130 44500
" />
<path d="M30795 24401
L34401 24401
" />
<path d="M35000 25000
L35000 25500
" />
<path d="M34401 24401
L35000 25000
" />
<path d="M23630 24224
L23630 24500
" />
<path d="M24103 23751
L23630 24224
" />
<path d="M29476 23751
L24103 23751
" />
<path d="M30125 24401
L29476 23751
" />
<path d="M34144 38500
L34869 39224
" />
<path d="M34869 39224
L34869 39500
" />
<path d="M31000 38500
L34144 38500
" />
<path d="M29500 34526
L29500 35000
" />
<path d="M29500 25027
L29500 34526
" />
<path d="M30125 24401
L29500 25027
" />
<path d="M30795 24401
L30125 24401
" />
<path d="M34869 37775
L34144 38500
" />
<path d="M34869 27500
L34869 37775
" />
<path d="M23630 38000
L24130 38500
" />
<path d="M23630 30500
L23630 38000
" />
<path d="M24130 38500
L24130 41500
" />
<path d="M28523 26460
L28464 26401
" />
<path d="M28464 26401
L27795 26401
" />
<path d="M28523 31638
L28523 26460
" />
<path d="M28500 31661
L28523 31638
" />
<path d="M28500 35000
L28500 31661
" />
<path d="M27500 31696
L27795 31401
" />
<path d="M27500 35000
L27500 31696
" />
<path d="M28669 45500
L28000 45500
" />
<path d="M28728 45440
L28669 45500
" />
<path d="M28728 36759
L28728 45440
" />
<path d="M27500 35531
L28728 36759
" />
<path d="M27500 35000
L27500 35531
" />
<path d="M25598 30401
L25500 30500
" />
<path d="M25500 30500
L24369 30500
" />
<path d="M27795 30401
L25598 30401
" />
<path d="M26000 44500
L24869 44500
" />
<path d="M28000 44500
L26000 44500
" />
<path d="M27795 29401
L25598 29401
" />
<path d="M25598 29401
L25500 29500
" />
<path d="M25500 29500
L24369 29500
" />
<path d="M28000 43500
L26000 43500
" />
<path d="M26000 43500
L24869 43500
" />
<path d="M25500 28500
L24369 28500
" />
<path d="M25598 28401
L25500 28500
" />
<path d="M27795 28401
L25598 28401
" />
<path d="M26000 42500
L24869 42500
" />
<path d="M28000 42500
L26000 42500
" />
<path d="M25598 27401
L25500 27500
" />
<path d="M25500 27500
L24369 27500
" />
<path d="M27795 27401
L25598 27401
" />
<path d="M28000 41500
L26000 41500
" />
<path d="M26000 41500
L24869 41500
" />
<path d="M32901 27401
L33000 27500
" />
<path d="M34130 27500
L33000 27500
" />
<path d="M30795 27401
L32901 27401
" />
<path d="M31000 41500
L33000 41500
" />
<path d="M33000 41500
L34130 41500
" />
<path d="M32901 26401
L33000 26500
" />
<path d="M33000 26500
L34261 26500
" />
<path d="M30795 26401
L32901 26401
" />
<path d="M33000 40500
L34130 40500
" />
<path d="M31000 40500
L33000 40500
" />
<path d="M32901 25401
L33000 25500
" />
<path d="M33000 25500
L34261 25500
" />
<path d="M30795 25401
L32901 25401
" />
<path d="M31000 39500
L33000 39500
" />
<path d="M33000 39500
L34130 39500
" />
<path d="M25500 24500
L24369 24500
" />
<path d="M27795 24401
L25598 24401
" />
<path d="M25598 24401
L25500 24500
" />
<path d="M26000 38500
L24869 38500
" />
<path d="M28000 38500
L26000 38500
" />
<path d="M30795 29401
L30598 29401
" />
<path d="M33500 31437
L33500 36500
" />
<path d="M30795 29401
L31464 29401
" />
<path d="M31464 29401
L33500 31437
" />
<path d="M27000 40500
L28000 40500
" />
</g>
<g >
</g>
</g> 
</svg>
