G04 #@! TF.GenerationSoftware,KiCad,Pcbnew,5.1.5*
G04 #@! TF.CreationDate,2020-04-29T16:44:52+03:00*
G04 #@! TF.ProjectId,plikter,706c696b-7465-4722-9e6b-696361645f70,rev?*
G04 #@! TF.SameCoordinates,Original*
G04 #@! TF.FileFunction,Copper,L1,Top*
G04 #@! TF.FilePolarity,Positive*
%FSLAX46Y46*%
G04 Gerber Fmt 4.6, Leading zero omitted, Abs format (unit mm)*
G04 Created by KiCad (PCBNEW 5.1.5) date 2020-04-29 16:44:52*
%MOMM*%
%LPD*%
G04 APERTURE LIST*
%ADD10O,2.400000X1.600000*%
%ADD11R,2.400000X1.600000*%
%ADD12O,1.700000X1.700000*%
%ADD13R,1.700000X1.700000*%
%ADD14C,2.000000*%
%ADD15C,0.500000*%
G04 APERTURE END LIST*
D10*
X78220000Y-61980000D03*
X70600000Y-79760000D03*
X78220000Y-64520000D03*
X70600000Y-77220000D03*
X78220000Y-67060000D03*
X70600000Y-74680000D03*
X78220000Y-69600000D03*
X70600000Y-72140000D03*
X78220000Y-72140000D03*
X70600000Y-69600000D03*
X78220000Y-74680000D03*
X70600000Y-67060000D03*
X78220000Y-77220000D03*
X70600000Y-64520000D03*
X78220000Y-79760000D03*
D11*
X70600000Y-61980000D03*
D10*
X78740000Y-97790000D03*
X71120000Y-115570000D03*
X78740000Y-100330000D03*
X71120000Y-113030000D03*
X78740000Y-102870000D03*
X71120000Y-110490000D03*
X78740000Y-105410000D03*
X71120000Y-107950000D03*
X78740000Y-107950000D03*
X71120000Y-105410000D03*
X78740000Y-110490000D03*
X71120000Y-102870000D03*
X78740000Y-113030000D03*
X71120000Y-100330000D03*
X78740000Y-115570000D03*
D11*
X71120000Y-97790000D03*
D12*
X80010000Y-88900000D03*
X77470000Y-88900000D03*
X74930000Y-88900000D03*
X72390000Y-88900000D03*
D13*
X69850000Y-88900000D03*
D14*
X64770000Y-77470000D03*
X66040000Y-113030000D03*
X64770000Y-74930000D03*
X66040000Y-110490000D03*
X64770000Y-72390000D03*
X66040000Y-107950000D03*
X64770000Y-69850000D03*
X66040000Y-105410000D03*
X83820000Y-69850000D03*
X83820000Y-105410000D03*
X83820000Y-67310000D03*
X83820000Y-102870000D03*
X83820000Y-64770000D03*
X83820000Y-100330000D03*
X64770000Y-62230000D03*
X66040000Y-97790000D03*
X85090000Y-92710000D03*
X68580000Y-102870000D03*
D15*
X85090000Y-92710000D02*
X81280000Y-92710000D01*
X81280000Y-92710000D02*
X71120000Y-102870000D01*
M02*
