G04 #@! TF.GenerationSoftware,KiCad,Pcbnew,5.1.5*
G04 #@! TF.CreationDate,2020-04-28T03:40:59+03:00*
G04 #@! TF.ProjectId,plikter,706c696b-7465-4722-9e6b-696361645f70,rev?*
G04 #@! TF.SameCoordinates,Original*
G04 #@! TF.FileFunction,Copper,L1,Top*
G04 #@! TF.FilePolarity,Positive*
%FSLAX45Y45*%
G04 Gerber Fmt 4.5, Leading zero omitted, Abs format (unit mm)*
G04 Created by KiCad (PCBNEW 5.1.5) date 2020-04-28 03:40:59*
%MOMM*%
%LPD*%
G04 APERTURE LIST*
%ADD10O,2.400000X1.600000*%
%ADD11R,2.400000X1.600000*%
%ADD12O,1.700000X1.700000*%
%ADD13R,1.700000X1.700000*%
%ADD14C,2.000000*%
%ADD15C,0.500000*%
G04 APERTURE END LIST*
D10*
X7822000Y-6198000D03*
X7060000Y-7976000D03*
X7822000Y-6452000D03*
X7060000Y-7722000D03*
X7822000Y-6706000D03*
X7060000Y-7468000D03*
X7822000Y-6960000D03*
X7060000Y-7214000D03*
X7822000Y-7214000D03*
X7060000Y-6960000D03*
X7822000Y-7468000D03*
X7060000Y-6706000D03*
X7822000Y-7722000D03*
X7060000Y-6452000D03*
X7822000Y-7976000D03*
D11*
X7060000Y-6198000D03*
D10*
X7874000Y-9779000D03*
X7112000Y-11557000D03*
X7874000Y-10033000D03*
X7112000Y-11303000D03*
X7874000Y-10287000D03*
X7112000Y-11049000D03*
X7874000Y-10541000D03*
X7112000Y-10795000D03*
X7874000Y-10795000D03*
X7112000Y-10541000D03*
X7874000Y-11049000D03*
X7112000Y-10287000D03*
X7874000Y-11303000D03*
X7112000Y-10033000D03*
X7874000Y-11557000D03*
D11*
X7112000Y-9779000D03*
D12*
X8001000Y-8890000D03*
X7747000Y-8890000D03*
X7493000Y-8890000D03*
X7239000Y-8890000D03*
D13*
X6985000Y-8890000D03*
D14*
X6502000Y-7722000D03*
X6604000Y-11303000D03*
X6502000Y-7468000D03*
X6604000Y-11049000D03*
X6502000Y-7214000D03*
X6604000Y-10795000D03*
X6502000Y-6960000D03*
X6604000Y-10541000D03*
X8407000Y-6960000D03*
X8382000Y-10541000D03*
X8407000Y-6706000D03*
X8382000Y-10287000D03*
X8407000Y-6452000D03*
X8382000Y-10033000D03*
X6502000Y-6198000D03*
X6604000Y-9779000D03*
X6350000Y-10160000D03*
X8636000Y-7747000D03*
D15*
X8636000Y-8477000D02*
X8636000Y-7747000D01*
X8073000Y-9040000D02*
X8636000Y-8477000D01*
X6491421Y-10160000D02*
X6769000Y-9882421D01*
X6350000Y-10160000D02*
X6491421Y-10160000D01*
X6769000Y-9882421D02*
X6769000Y-9741000D01*
X6769000Y-9741000D02*
X7470000Y-9040000D01*
X7470000Y-9040000D02*
X8073000Y-9040000D01*
M02*
