M48
; DRILL file {KiCad 5.1.5} date Wed 29 Apr 2020 04:33:16 PM EEST
; FORMAT={-:-/ absolute / metric / decimal}
; #@! TF.CreationDate,2020-04-29T16:33:16+03:00
; #@! TF.GenerationSoftware,Kicad,Pcbnew,5.1.5
; #@! TF.FileFunction,Plated,1,2,PTH
FMAT,2
METRIC
T1C0.800
T2C1.000
%
G90
G05
T1
X71.12Y-97.79
X71.12Y-100.33
X71.12Y-102.87
X71.12Y-105.41
X71.12Y-107.95
X71.12Y-110.49
X71.12Y-113.03
X71.12Y-115.57
X78.74Y-97.79
X78.74Y-100.33
X78.74Y-102.87
X78.74Y-105.41
X78.74Y-107.95
X78.74Y-110.49
X78.74Y-113.03
X78.74Y-115.57
X70.6Y-61.98
X70.6Y-64.52
X70.6Y-67.06
X70.6Y-69.6
X70.6Y-72.14
X70.6Y-74.68
X70.6Y-77.22
X70.6Y-79.76
X78.22Y-61.98
X78.22Y-64.52
X78.22Y-67.06
X78.22Y-69.6
X78.22Y-72.14
X78.22Y-74.68
X78.22Y-77.22
X78.22Y-79.76
T2
X64.77Y-62.23
X64.77Y-69.85
X64.77Y-72.39
X64.77Y-74.93
X64.77Y-77.47
X66.04Y-97.79
X66.04Y-105.41
X66.04Y-107.95
X66.04Y-110.49
X66.04Y-113.03
X68.58Y-102.87
X83.82Y-64.77
X83.82Y-67.31
X83.82Y-69.85
X83.82Y-100.33
X83.82Y-102.87
X83.82Y-105.41
X85.09Y-92.71
X69.85Y-88.9
X72.39Y-88.9
X74.93Y-88.9
X77.47Y-88.9
X80.01Y-88.9
T0
M30
