G04 #@! TF.GenerationSoftware,KiCad,Pcbnew,5.1.5*
G04 #@! TF.CreationDate,2020-04-28T03:40:59+03:00*
G04 #@! TF.ProjectId,plikter,706c696b-7465-4722-9e6b-696361645f70,rev?*
G04 #@! TF.SameCoordinates,Original*
G04 #@! TF.FileFunction,Copper,L2,Bot*
G04 #@! TF.FilePolarity,Positive*
%FSLAX45Y45*%
G04 Gerber Fmt 4.5, Leading zero omitted, Abs format (unit mm)*
G04 Created by KiCad (PCBNEW 5.1.5) date 2020-04-28 03:40:59*
%MOMM*%
%LPD*%
G04 APERTURE LIST*
%ADD10O,2.400000X1.600000*%
%ADD11R,2.400000X1.600000*%
%ADD12C,0.100000*%
%ADD13O,1.700000X1.700000*%
%ADD14R,1.700000X1.700000*%
%ADD15C,2.000000*%
%ADD16C,0.500000*%
G04 APERTURE END LIST*
D10*
X7822000Y-6198000D03*
X7060000Y-7976000D03*
X7822000Y-6452000D03*
X7060000Y-7722000D03*
X7822000Y-6706000D03*
X7060000Y-7468000D03*
X7822000Y-6960000D03*
X7060000Y-7214000D03*
X7822000Y-7214000D03*
X7060000Y-6960000D03*
X7822000Y-7468000D03*
X7060000Y-6706000D03*
X7822000Y-7722000D03*
X7060000Y-6452000D03*
X7822000Y-7976000D03*
D11*
X7060000Y-6198000D03*
D10*
X7874000Y-9779000D03*
X7112000Y-11557000D03*
X7874000Y-10033000D03*
X7112000Y-11303000D03*
X7874000Y-10287000D03*
X7112000Y-11049000D03*
X7874000Y-10541000D03*
X7112000Y-10795000D03*
X7874000Y-10795000D03*
X7112000Y-10541000D03*
X7874000Y-11049000D03*
X7112000Y-10287000D03*
X7874000Y-11303000D03*
X7112000Y-10033000D03*
X7874000Y-11557000D03*
D11*
X7112000Y-9779000D03*
G04 #@! TA.AperFunction,SMDPad,CuDef*
D12*
G36*
X6343514Y-9709117D02*
G01*
X6345880Y-9709468D01*
X6348201Y-9710050D01*
X6350453Y-9710855D01*
X6352615Y-9711878D01*
X6354667Y-9713108D01*
X6356588Y-9714533D01*
X6358361Y-9716139D01*
X6359967Y-9717912D01*
X6361392Y-9719833D01*
X6362622Y-9721885D01*
X6363645Y-9724047D01*
X6364450Y-9726299D01*
X6365032Y-9728620D01*
X6365383Y-9730986D01*
X6365500Y-9733375D01*
X6365500Y-9824625D01*
X6365383Y-9827014D01*
X6365032Y-9829380D01*
X6364450Y-9831701D01*
X6363645Y-9833953D01*
X6362622Y-9836115D01*
X6361392Y-9838167D01*
X6359967Y-9840088D01*
X6358361Y-9841861D01*
X6356588Y-9843467D01*
X6354667Y-9844892D01*
X6352615Y-9846122D01*
X6350453Y-9847145D01*
X6348201Y-9847950D01*
X6345880Y-9848532D01*
X6343514Y-9848883D01*
X6341125Y-9849000D01*
X6292375Y-9849000D01*
X6289986Y-9848883D01*
X6287620Y-9848532D01*
X6285299Y-9847950D01*
X6283047Y-9847145D01*
X6280885Y-9846122D01*
X6278833Y-9844892D01*
X6276912Y-9843467D01*
X6275139Y-9841861D01*
X6273533Y-9840088D01*
X6272108Y-9838167D01*
X6270878Y-9836115D01*
X6269855Y-9833953D01*
X6269050Y-9831701D01*
X6268468Y-9829380D01*
X6268117Y-9827014D01*
X6268000Y-9824625D01*
X6268000Y-9733375D01*
X6268117Y-9730986D01*
X6268468Y-9728620D01*
X6269050Y-9726299D01*
X6269855Y-9724047D01*
X6270878Y-9721885D01*
X6272108Y-9719833D01*
X6273533Y-9717912D01*
X6275139Y-9716139D01*
X6276912Y-9714533D01*
X6278833Y-9713108D01*
X6280885Y-9711878D01*
X6283047Y-9710855D01*
X6285299Y-9710050D01*
X6287620Y-9709468D01*
X6289986Y-9709117D01*
X6292375Y-9709000D01*
X6341125Y-9709000D01*
X6343514Y-9709117D01*
G37*
G04 #@! TD.AperFunction*
G04 #@! TA.AperFunction,SMDPad,CuDef*
G36*
X6156014Y-9709117D02*
G01*
X6158380Y-9709468D01*
X6160701Y-9710050D01*
X6162953Y-9710855D01*
X6165115Y-9711878D01*
X6167167Y-9713108D01*
X6169088Y-9714533D01*
X6170861Y-9716139D01*
X6172467Y-9717912D01*
X6173892Y-9719833D01*
X6175122Y-9721885D01*
X6176145Y-9724047D01*
X6176950Y-9726299D01*
X6177532Y-9728620D01*
X6177883Y-9730986D01*
X6178000Y-9733375D01*
X6178000Y-9824625D01*
X6177883Y-9827014D01*
X6177532Y-9829380D01*
X6176950Y-9831701D01*
X6176145Y-9833953D01*
X6175122Y-9836115D01*
X6173892Y-9838167D01*
X6172467Y-9840088D01*
X6170861Y-9841861D01*
X6169088Y-9843467D01*
X6167167Y-9844892D01*
X6165115Y-9846122D01*
X6162953Y-9847145D01*
X6160701Y-9847950D01*
X6158380Y-9848532D01*
X6156014Y-9848883D01*
X6153625Y-9849000D01*
X6104875Y-9849000D01*
X6102486Y-9848883D01*
X6100120Y-9848532D01*
X6097799Y-9847950D01*
X6095547Y-9847145D01*
X6093385Y-9846122D01*
X6091333Y-9844892D01*
X6089412Y-9843467D01*
X6087639Y-9841861D01*
X6086033Y-9840088D01*
X6084608Y-9838167D01*
X6083378Y-9836115D01*
X6082355Y-9833953D01*
X6081550Y-9831701D01*
X6080968Y-9829380D01*
X6080617Y-9827014D01*
X6080500Y-9824625D01*
X6080500Y-9733375D01*
X6080617Y-9730986D01*
X6080968Y-9728620D01*
X6081550Y-9726299D01*
X6082355Y-9724047D01*
X6083378Y-9721885D01*
X6084608Y-9719833D01*
X6086033Y-9717912D01*
X6087639Y-9716139D01*
X6089412Y-9714533D01*
X6091333Y-9713108D01*
X6093385Y-9711878D01*
X6095547Y-9710855D01*
X6097799Y-9710050D01*
X6100120Y-9709468D01*
X6102486Y-9709117D01*
X6104875Y-9709000D01*
X6153625Y-9709000D01*
X6156014Y-9709117D01*
G37*
G04 #@! TD.AperFunction*
G04 #@! TA.AperFunction,SMDPad,CuDef*
G36*
X6216514Y-6153117D02*
G01*
X6218880Y-6153468D01*
X6221201Y-6154050D01*
X6223453Y-6154855D01*
X6225615Y-6155878D01*
X6227667Y-6157108D01*
X6229588Y-6158533D01*
X6231361Y-6160139D01*
X6232967Y-6161912D01*
X6234392Y-6163833D01*
X6235622Y-6165885D01*
X6236645Y-6168047D01*
X6237450Y-6170299D01*
X6238032Y-6172620D01*
X6238383Y-6174986D01*
X6238500Y-6177375D01*
X6238500Y-6268625D01*
X6238383Y-6271014D01*
X6238032Y-6273380D01*
X6237450Y-6275701D01*
X6236645Y-6277953D01*
X6235622Y-6280115D01*
X6234392Y-6282167D01*
X6232967Y-6284088D01*
X6231361Y-6285861D01*
X6229588Y-6287467D01*
X6227667Y-6288892D01*
X6225615Y-6290122D01*
X6223453Y-6291145D01*
X6221201Y-6291950D01*
X6218880Y-6292532D01*
X6216514Y-6292883D01*
X6214125Y-6293000D01*
X6165375Y-6293000D01*
X6162986Y-6292883D01*
X6160620Y-6292532D01*
X6158299Y-6291950D01*
X6156047Y-6291145D01*
X6153885Y-6290122D01*
X6151833Y-6288892D01*
X6149912Y-6287467D01*
X6148139Y-6285861D01*
X6146533Y-6284088D01*
X6145108Y-6282167D01*
X6143878Y-6280115D01*
X6142855Y-6277953D01*
X6142050Y-6275701D01*
X6141468Y-6273380D01*
X6141117Y-6271014D01*
X6141000Y-6268625D01*
X6141000Y-6177375D01*
X6141117Y-6174986D01*
X6141468Y-6172620D01*
X6142050Y-6170299D01*
X6142855Y-6168047D01*
X6143878Y-6165885D01*
X6145108Y-6163833D01*
X6146533Y-6161912D01*
X6148139Y-6160139D01*
X6149912Y-6158533D01*
X6151833Y-6157108D01*
X6153885Y-6155878D01*
X6156047Y-6154855D01*
X6158299Y-6154050D01*
X6160620Y-6153468D01*
X6162986Y-6153117D01*
X6165375Y-6153000D01*
X6214125Y-6153000D01*
X6216514Y-6153117D01*
G37*
G04 #@! TD.AperFunction*
G04 #@! TA.AperFunction,SMDPad,CuDef*
G36*
X6029014Y-6153117D02*
G01*
X6031380Y-6153468D01*
X6033701Y-6154050D01*
X6035953Y-6154855D01*
X6038115Y-6155878D01*
X6040167Y-6157108D01*
X6042088Y-6158533D01*
X6043861Y-6160139D01*
X6045467Y-6161912D01*
X6046892Y-6163833D01*
X6048122Y-6165885D01*
X6049145Y-6168047D01*
X6049950Y-6170299D01*
X6050532Y-6172620D01*
X6050883Y-6174986D01*
X6051000Y-6177375D01*
X6051000Y-6268625D01*
X6050883Y-6271014D01*
X6050532Y-6273380D01*
X6049950Y-6275701D01*
X6049145Y-6277953D01*
X6048122Y-6280115D01*
X6046892Y-6282167D01*
X6045467Y-6284088D01*
X6043861Y-6285861D01*
X6042088Y-6287467D01*
X6040167Y-6288892D01*
X6038115Y-6290122D01*
X6035953Y-6291145D01*
X6033701Y-6291950D01*
X6031380Y-6292532D01*
X6029014Y-6292883D01*
X6026625Y-6293000D01*
X5977875Y-6293000D01*
X5975486Y-6292883D01*
X5973120Y-6292532D01*
X5970799Y-6291950D01*
X5968547Y-6291145D01*
X5966385Y-6290122D01*
X5964333Y-6288892D01*
X5962412Y-6287467D01*
X5960639Y-6285861D01*
X5959033Y-6284088D01*
X5957608Y-6282167D01*
X5956378Y-6280115D01*
X5955355Y-6277953D01*
X5954550Y-6275701D01*
X5953968Y-6273380D01*
X5953617Y-6271014D01*
X5953500Y-6268625D01*
X5953500Y-6177375D01*
X5953617Y-6174986D01*
X5953968Y-6172620D01*
X5954550Y-6170299D01*
X5955355Y-6168047D01*
X5956378Y-6165885D01*
X5957608Y-6163833D01*
X5959033Y-6161912D01*
X5960639Y-6160139D01*
X5962412Y-6158533D01*
X5964333Y-6157108D01*
X5966385Y-6155878D01*
X5968547Y-6154855D01*
X5970799Y-6154050D01*
X5973120Y-6153468D01*
X5975486Y-6153117D01*
X5977875Y-6153000D01*
X6026625Y-6153000D01*
X6029014Y-6153117D01*
G37*
G04 #@! TD.AperFunction*
G04 #@! TA.AperFunction,SMDPad,CuDef*
G36*
X8696014Y-9963117D02*
G01*
X8698380Y-9963468D01*
X8700701Y-9964050D01*
X8702953Y-9964855D01*
X8705115Y-9965878D01*
X8707167Y-9967108D01*
X8709088Y-9968533D01*
X8710861Y-9970139D01*
X8712467Y-9971912D01*
X8713892Y-9973833D01*
X8715122Y-9975885D01*
X8716145Y-9978047D01*
X8716950Y-9980299D01*
X8717532Y-9982620D01*
X8717883Y-9984986D01*
X8718000Y-9987375D01*
X8718000Y-10078625D01*
X8717883Y-10081014D01*
X8717532Y-10083380D01*
X8716950Y-10085701D01*
X8716145Y-10087953D01*
X8715122Y-10090115D01*
X8713892Y-10092167D01*
X8712467Y-10094088D01*
X8710861Y-10095861D01*
X8709088Y-10097467D01*
X8707167Y-10098892D01*
X8705115Y-10100122D01*
X8702953Y-10101145D01*
X8700701Y-10101950D01*
X8698380Y-10102532D01*
X8696014Y-10102883D01*
X8693625Y-10103000D01*
X8644875Y-10103000D01*
X8642486Y-10102883D01*
X8640120Y-10102532D01*
X8637799Y-10101950D01*
X8635547Y-10101145D01*
X8633385Y-10100122D01*
X8631333Y-10098892D01*
X8629412Y-10097467D01*
X8627639Y-10095861D01*
X8626033Y-10094088D01*
X8624608Y-10092167D01*
X8623378Y-10090115D01*
X8622355Y-10087953D01*
X8621550Y-10085701D01*
X8620968Y-10083380D01*
X8620617Y-10081014D01*
X8620500Y-10078625D01*
X8620500Y-9987375D01*
X8620617Y-9984986D01*
X8620968Y-9982620D01*
X8621550Y-9980299D01*
X8622355Y-9978047D01*
X8623378Y-9975885D01*
X8624608Y-9973833D01*
X8626033Y-9971912D01*
X8627639Y-9970139D01*
X8629412Y-9968533D01*
X8631333Y-9967108D01*
X8633385Y-9965878D01*
X8635547Y-9964855D01*
X8637799Y-9964050D01*
X8640120Y-9963468D01*
X8642486Y-9963117D01*
X8644875Y-9963000D01*
X8693625Y-9963000D01*
X8696014Y-9963117D01*
G37*
G04 #@! TD.AperFunction*
G04 #@! TA.AperFunction,SMDPad,CuDef*
G36*
X8883514Y-9963117D02*
G01*
X8885880Y-9963468D01*
X8888201Y-9964050D01*
X8890453Y-9964855D01*
X8892615Y-9965878D01*
X8894667Y-9967108D01*
X8896588Y-9968533D01*
X8898361Y-9970139D01*
X8899967Y-9971912D01*
X8901392Y-9973833D01*
X8902622Y-9975885D01*
X8903645Y-9978047D01*
X8904450Y-9980299D01*
X8905032Y-9982620D01*
X8905383Y-9984986D01*
X8905500Y-9987375D01*
X8905500Y-10078625D01*
X8905383Y-10081014D01*
X8905032Y-10083380D01*
X8904450Y-10085701D01*
X8903645Y-10087953D01*
X8902622Y-10090115D01*
X8901392Y-10092167D01*
X8899967Y-10094088D01*
X8898361Y-10095861D01*
X8896588Y-10097467D01*
X8894667Y-10098892D01*
X8892615Y-10100122D01*
X8890453Y-10101145D01*
X8888201Y-10101950D01*
X8885880Y-10102532D01*
X8883514Y-10102883D01*
X8881125Y-10103000D01*
X8832375Y-10103000D01*
X8829986Y-10102883D01*
X8827620Y-10102532D01*
X8825299Y-10101950D01*
X8823047Y-10101145D01*
X8820885Y-10100122D01*
X8818833Y-10098892D01*
X8816912Y-10097467D01*
X8815139Y-10095861D01*
X8813533Y-10094088D01*
X8812108Y-10092167D01*
X8810878Y-10090115D01*
X8809855Y-10087953D01*
X8809050Y-10085701D01*
X8808468Y-10083380D01*
X8808117Y-10081014D01*
X8808000Y-10078625D01*
X8808000Y-9987375D01*
X8808117Y-9984986D01*
X8808468Y-9982620D01*
X8809050Y-9980299D01*
X8809855Y-9978047D01*
X8810878Y-9975885D01*
X8812108Y-9973833D01*
X8813533Y-9971912D01*
X8815139Y-9970139D01*
X8816912Y-9968533D01*
X8818833Y-9967108D01*
X8820885Y-9965878D01*
X8823047Y-9964855D01*
X8825299Y-9964050D01*
X8827620Y-9963468D01*
X8829986Y-9963117D01*
X8832375Y-9963000D01*
X8881125Y-9963000D01*
X8883514Y-9963117D01*
G37*
G04 #@! TD.AperFunction*
G04 #@! TA.AperFunction,SMDPad,CuDef*
G36*
X8729264Y-6407117D02*
G01*
X8731630Y-6407468D01*
X8733951Y-6408050D01*
X8736203Y-6408855D01*
X8738365Y-6409878D01*
X8740417Y-6411108D01*
X8742338Y-6412533D01*
X8744111Y-6414139D01*
X8745717Y-6415912D01*
X8747142Y-6417833D01*
X8748372Y-6419885D01*
X8749395Y-6422047D01*
X8750200Y-6424299D01*
X8750782Y-6426620D01*
X8751133Y-6428986D01*
X8751250Y-6431375D01*
X8751250Y-6522625D01*
X8751133Y-6525014D01*
X8750782Y-6527380D01*
X8750200Y-6529701D01*
X8749395Y-6531953D01*
X8748372Y-6534115D01*
X8747142Y-6536167D01*
X8745717Y-6538088D01*
X8744111Y-6539861D01*
X8742338Y-6541467D01*
X8740417Y-6542892D01*
X8738365Y-6544122D01*
X8736203Y-6545145D01*
X8733951Y-6545950D01*
X8731630Y-6546532D01*
X8729264Y-6546883D01*
X8726875Y-6547000D01*
X8678125Y-6547000D01*
X8675736Y-6546883D01*
X8673370Y-6546532D01*
X8671049Y-6545950D01*
X8668797Y-6545145D01*
X8666635Y-6544122D01*
X8664583Y-6542892D01*
X8662662Y-6541467D01*
X8660889Y-6539861D01*
X8659283Y-6538088D01*
X8657858Y-6536167D01*
X8656628Y-6534115D01*
X8655605Y-6531953D01*
X8654800Y-6529701D01*
X8654218Y-6527380D01*
X8653867Y-6525014D01*
X8653750Y-6522625D01*
X8653750Y-6431375D01*
X8653867Y-6428986D01*
X8654218Y-6426620D01*
X8654800Y-6424299D01*
X8655605Y-6422047D01*
X8656628Y-6419885D01*
X8657858Y-6417833D01*
X8659283Y-6415912D01*
X8660889Y-6414139D01*
X8662662Y-6412533D01*
X8664583Y-6411108D01*
X8666635Y-6409878D01*
X8668797Y-6408855D01*
X8671049Y-6408050D01*
X8673370Y-6407468D01*
X8675736Y-6407117D01*
X8678125Y-6407000D01*
X8726875Y-6407000D01*
X8729264Y-6407117D01*
G37*
G04 #@! TD.AperFunction*
G04 #@! TA.AperFunction,SMDPad,CuDef*
G36*
X8916764Y-6407117D02*
G01*
X8919130Y-6407468D01*
X8921451Y-6408050D01*
X8923703Y-6408855D01*
X8925865Y-6409878D01*
X8927917Y-6411108D01*
X8929838Y-6412533D01*
X8931611Y-6414139D01*
X8933217Y-6415912D01*
X8934642Y-6417833D01*
X8935872Y-6419885D01*
X8936895Y-6422047D01*
X8937700Y-6424299D01*
X8938282Y-6426620D01*
X8938633Y-6428986D01*
X8938750Y-6431375D01*
X8938750Y-6522625D01*
X8938633Y-6525014D01*
X8938282Y-6527380D01*
X8937700Y-6529701D01*
X8936895Y-6531953D01*
X8935872Y-6534115D01*
X8934642Y-6536167D01*
X8933217Y-6538088D01*
X8931611Y-6539861D01*
X8929838Y-6541467D01*
X8927917Y-6542892D01*
X8925865Y-6544122D01*
X8923703Y-6545145D01*
X8921451Y-6545950D01*
X8919130Y-6546532D01*
X8916764Y-6546883D01*
X8914375Y-6547000D01*
X8865625Y-6547000D01*
X8863236Y-6546883D01*
X8860870Y-6546532D01*
X8858549Y-6545950D01*
X8856297Y-6545145D01*
X8854135Y-6544122D01*
X8852083Y-6542892D01*
X8850162Y-6541467D01*
X8848389Y-6539861D01*
X8846783Y-6538088D01*
X8845358Y-6536167D01*
X8844128Y-6534115D01*
X8843105Y-6531953D01*
X8842300Y-6529701D01*
X8841718Y-6527380D01*
X8841367Y-6525014D01*
X8841250Y-6522625D01*
X8841250Y-6431375D01*
X8841367Y-6428986D01*
X8841718Y-6426620D01*
X8842300Y-6424299D01*
X8843105Y-6422047D01*
X8844128Y-6419885D01*
X8845358Y-6417833D01*
X8846783Y-6415912D01*
X8848389Y-6414139D01*
X8850162Y-6412533D01*
X8852083Y-6411108D01*
X8854135Y-6409878D01*
X8856297Y-6408855D01*
X8858549Y-6408050D01*
X8860870Y-6407468D01*
X8863236Y-6407117D01*
X8865625Y-6407000D01*
X8914375Y-6407000D01*
X8916764Y-6407117D01*
G37*
G04 #@! TD.AperFunction*
G04 #@! TA.AperFunction,SMDPad,CuDef*
G36*
X8696014Y-10217117D02*
G01*
X8698380Y-10217468D01*
X8700701Y-10218050D01*
X8702953Y-10218855D01*
X8705115Y-10219878D01*
X8707167Y-10221108D01*
X8709088Y-10222533D01*
X8710861Y-10224139D01*
X8712467Y-10225912D01*
X8713892Y-10227833D01*
X8715122Y-10229885D01*
X8716145Y-10232047D01*
X8716950Y-10234299D01*
X8717532Y-10236620D01*
X8717883Y-10238986D01*
X8718000Y-10241375D01*
X8718000Y-10332625D01*
X8717883Y-10335014D01*
X8717532Y-10337380D01*
X8716950Y-10339701D01*
X8716145Y-10341953D01*
X8715122Y-10344115D01*
X8713892Y-10346167D01*
X8712467Y-10348088D01*
X8710861Y-10349861D01*
X8709088Y-10351467D01*
X8707167Y-10352892D01*
X8705115Y-10354122D01*
X8702953Y-10355145D01*
X8700701Y-10355950D01*
X8698380Y-10356532D01*
X8696014Y-10356883D01*
X8693625Y-10357000D01*
X8644875Y-10357000D01*
X8642486Y-10356883D01*
X8640120Y-10356532D01*
X8637799Y-10355950D01*
X8635547Y-10355145D01*
X8633385Y-10354122D01*
X8631333Y-10352892D01*
X8629412Y-10351467D01*
X8627639Y-10349861D01*
X8626033Y-10348088D01*
X8624608Y-10346167D01*
X8623378Y-10344115D01*
X8622355Y-10341953D01*
X8621550Y-10339701D01*
X8620968Y-10337380D01*
X8620617Y-10335014D01*
X8620500Y-10332625D01*
X8620500Y-10241375D01*
X8620617Y-10238986D01*
X8620968Y-10236620D01*
X8621550Y-10234299D01*
X8622355Y-10232047D01*
X8623378Y-10229885D01*
X8624608Y-10227833D01*
X8626033Y-10225912D01*
X8627639Y-10224139D01*
X8629412Y-10222533D01*
X8631333Y-10221108D01*
X8633385Y-10219878D01*
X8635547Y-10218855D01*
X8637799Y-10218050D01*
X8640120Y-10217468D01*
X8642486Y-10217117D01*
X8644875Y-10217000D01*
X8693625Y-10217000D01*
X8696014Y-10217117D01*
G37*
G04 #@! TD.AperFunction*
G04 #@! TA.AperFunction,SMDPad,CuDef*
G36*
X8883514Y-10217117D02*
G01*
X8885880Y-10217468D01*
X8888201Y-10218050D01*
X8890453Y-10218855D01*
X8892615Y-10219878D01*
X8894667Y-10221108D01*
X8896588Y-10222533D01*
X8898361Y-10224139D01*
X8899967Y-10225912D01*
X8901392Y-10227833D01*
X8902622Y-10229885D01*
X8903645Y-10232047D01*
X8904450Y-10234299D01*
X8905032Y-10236620D01*
X8905383Y-10238986D01*
X8905500Y-10241375D01*
X8905500Y-10332625D01*
X8905383Y-10335014D01*
X8905032Y-10337380D01*
X8904450Y-10339701D01*
X8903645Y-10341953D01*
X8902622Y-10344115D01*
X8901392Y-10346167D01*
X8899967Y-10348088D01*
X8898361Y-10349861D01*
X8896588Y-10351467D01*
X8894667Y-10352892D01*
X8892615Y-10354122D01*
X8890453Y-10355145D01*
X8888201Y-10355950D01*
X8885880Y-10356532D01*
X8883514Y-10356883D01*
X8881125Y-10357000D01*
X8832375Y-10357000D01*
X8829986Y-10356883D01*
X8827620Y-10356532D01*
X8825299Y-10355950D01*
X8823047Y-10355145D01*
X8820885Y-10354122D01*
X8818833Y-10352892D01*
X8816912Y-10351467D01*
X8815139Y-10349861D01*
X8813533Y-10348088D01*
X8812108Y-10346167D01*
X8810878Y-10344115D01*
X8809855Y-10341953D01*
X8809050Y-10339701D01*
X8808468Y-10337380D01*
X8808117Y-10335014D01*
X8808000Y-10332625D01*
X8808000Y-10241375D01*
X8808117Y-10238986D01*
X8808468Y-10236620D01*
X8809050Y-10234299D01*
X8809855Y-10232047D01*
X8810878Y-10229885D01*
X8812108Y-10227833D01*
X8813533Y-10225912D01*
X8815139Y-10224139D01*
X8816912Y-10222533D01*
X8818833Y-10221108D01*
X8820885Y-10219878D01*
X8823047Y-10218855D01*
X8825299Y-10218050D01*
X8827620Y-10217468D01*
X8829986Y-10217117D01*
X8832375Y-10217000D01*
X8881125Y-10217000D01*
X8883514Y-10217117D01*
G37*
G04 #@! TD.AperFunction*
G04 #@! TA.AperFunction,SMDPad,CuDef*
G36*
X8729264Y-6661117D02*
G01*
X8731630Y-6661468D01*
X8733951Y-6662050D01*
X8736203Y-6662855D01*
X8738365Y-6663878D01*
X8740417Y-6665108D01*
X8742338Y-6666533D01*
X8744111Y-6668139D01*
X8745717Y-6669912D01*
X8747142Y-6671833D01*
X8748372Y-6673885D01*
X8749395Y-6676047D01*
X8750200Y-6678299D01*
X8750782Y-6680620D01*
X8751133Y-6682986D01*
X8751250Y-6685375D01*
X8751250Y-6776625D01*
X8751133Y-6779014D01*
X8750782Y-6781380D01*
X8750200Y-6783701D01*
X8749395Y-6785953D01*
X8748372Y-6788115D01*
X8747142Y-6790167D01*
X8745717Y-6792088D01*
X8744111Y-6793861D01*
X8742338Y-6795467D01*
X8740417Y-6796892D01*
X8738365Y-6798122D01*
X8736203Y-6799145D01*
X8733951Y-6799950D01*
X8731630Y-6800532D01*
X8729264Y-6800883D01*
X8726875Y-6801000D01*
X8678125Y-6801000D01*
X8675736Y-6800883D01*
X8673370Y-6800532D01*
X8671049Y-6799950D01*
X8668797Y-6799145D01*
X8666635Y-6798122D01*
X8664583Y-6796892D01*
X8662662Y-6795467D01*
X8660889Y-6793861D01*
X8659283Y-6792088D01*
X8657858Y-6790167D01*
X8656628Y-6788115D01*
X8655605Y-6785953D01*
X8654800Y-6783701D01*
X8654218Y-6781380D01*
X8653867Y-6779014D01*
X8653750Y-6776625D01*
X8653750Y-6685375D01*
X8653867Y-6682986D01*
X8654218Y-6680620D01*
X8654800Y-6678299D01*
X8655605Y-6676047D01*
X8656628Y-6673885D01*
X8657858Y-6671833D01*
X8659283Y-6669912D01*
X8660889Y-6668139D01*
X8662662Y-6666533D01*
X8664583Y-6665108D01*
X8666635Y-6663878D01*
X8668797Y-6662855D01*
X8671049Y-6662050D01*
X8673370Y-6661468D01*
X8675736Y-6661117D01*
X8678125Y-6661000D01*
X8726875Y-6661000D01*
X8729264Y-6661117D01*
G37*
G04 #@! TD.AperFunction*
G04 #@! TA.AperFunction,SMDPad,CuDef*
G36*
X8916764Y-6661117D02*
G01*
X8919130Y-6661468D01*
X8921451Y-6662050D01*
X8923703Y-6662855D01*
X8925865Y-6663878D01*
X8927917Y-6665108D01*
X8929838Y-6666533D01*
X8931611Y-6668139D01*
X8933217Y-6669912D01*
X8934642Y-6671833D01*
X8935872Y-6673885D01*
X8936895Y-6676047D01*
X8937700Y-6678299D01*
X8938282Y-6680620D01*
X8938633Y-6682986D01*
X8938750Y-6685375D01*
X8938750Y-6776625D01*
X8938633Y-6779014D01*
X8938282Y-6781380D01*
X8937700Y-6783701D01*
X8936895Y-6785953D01*
X8935872Y-6788115D01*
X8934642Y-6790167D01*
X8933217Y-6792088D01*
X8931611Y-6793861D01*
X8929838Y-6795467D01*
X8927917Y-6796892D01*
X8925865Y-6798122D01*
X8923703Y-6799145D01*
X8921451Y-6799950D01*
X8919130Y-6800532D01*
X8916764Y-6800883D01*
X8914375Y-6801000D01*
X8865625Y-6801000D01*
X8863236Y-6800883D01*
X8860870Y-6800532D01*
X8858549Y-6799950D01*
X8856297Y-6799145D01*
X8854135Y-6798122D01*
X8852083Y-6796892D01*
X8850162Y-6795467D01*
X8848389Y-6793861D01*
X8846783Y-6792088D01*
X8845358Y-6790167D01*
X8844128Y-6788115D01*
X8843105Y-6785953D01*
X8842300Y-6783701D01*
X8841718Y-6781380D01*
X8841367Y-6779014D01*
X8841250Y-6776625D01*
X8841250Y-6685375D01*
X8841367Y-6682986D01*
X8841718Y-6680620D01*
X8842300Y-6678299D01*
X8843105Y-6676047D01*
X8844128Y-6673885D01*
X8845358Y-6671833D01*
X8846783Y-6669912D01*
X8848389Y-6668139D01*
X8850162Y-6666533D01*
X8852083Y-6665108D01*
X8854135Y-6663878D01*
X8856297Y-6662855D01*
X8858549Y-6662050D01*
X8860870Y-6661468D01*
X8863236Y-6661117D01*
X8865625Y-6661000D01*
X8914375Y-6661000D01*
X8916764Y-6661117D01*
G37*
G04 #@! TD.AperFunction*
G04 #@! TA.AperFunction,SMDPad,CuDef*
G36*
X8696014Y-10471117D02*
G01*
X8698380Y-10471468D01*
X8700701Y-10472050D01*
X8702953Y-10472855D01*
X8705115Y-10473878D01*
X8707167Y-10475108D01*
X8709088Y-10476533D01*
X8710861Y-10478139D01*
X8712467Y-10479912D01*
X8713892Y-10481833D01*
X8715122Y-10483885D01*
X8716145Y-10486047D01*
X8716950Y-10488299D01*
X8717532Y-10490620D01*
X8717883Y-10492986D01*
X8718000Y-10495375D01*
X8718000Y-10586625D01*
X8717883Y-10589014D01*
X8717532Y-10591380D01*
X8716950Y-10593701D01*
X8716145Y-10595953D01*
X8715122Y-10598115D01*
X8713892Y-10600167D01*
X8712467Y-10602088D01*
X8710861Y-10603861D01*
X8709088Y-10605467D01*
X8707167Y-10606892D01*
X8705115Y-10608122D01*
X8702953Y-10609145D01*
X8700701Y-10609950D01*
X8698380Y-10610532D01*
X8696014Y-10610883D01*
X8693625Y-10611000D01*
X8644875Y-10611000D01*
X8642486Y-10610883D01*
X8640120Y-10610532D01*
X8637799Y-10609950D01*
X8635547Y-10609145D01*
X8633385Y-10608122D01*
X8631333Y-10606892D01*
X8629412Y-10605467D01*
X8627639Y-10603861D01*
X8626033Y-10602088D01*
X8624608Y-10600167D01*
X8623378Y-10598115D01*
X8622355Y-10595953D01*
X8621550Y-10593701D01*
X8620968Y-10591380D01*
X8620617Y-10589014D01*
X8620500Y-10586625D01*
X8620500Y-10495375D01*
X8620617Y-10492986D01*
X8620968Y-10490620D01*
X8621550Y-10488299D01*
X8622355Y-10486047D01*
X8623378Y-10483885D01*
X8624608Y-10481833D01*
X8626033Y-10479912D01*
X8627639Y-10478139D01*
X8629412Y-10476533D01*
X8631333Y-10475108D01*
X8633385Y-10473878D01*
X8635547Y-10472855D01*
X8637799Y-10472050D01*
X8640120Y-10471468D01*
X8642486Y-10471117D01*
X8644875Y-10471000D01*
X8693625Y-10471000D01*
X8696014Y-10471117D01*
G37*
G04 #@! TD.AperFunction*
G04 #@! TA.AperFunction,SMDPad,CuDef*
G36*
X8883514Y-10471117D02*
G01*
X8885880Y-10471468D01*
X8888201Y-10472050D01*
X8890453Y-10472855D01*
X8892615Y-10473878D01*
X8894667Y-10475108D01*
X8896588Y-10476533D01*
X8898361Y-10478139D01*
X8899967Y-10479912D01*
X8901392Y-10481833D01*
X8902622Y-10483885D01*
X8903645Y-10486047D01*
X8904450Y-10488299D01*
X8905032Y-10490620D01*
X8905383Y-10492986D01*
X8905500Y-10495375D01*
X8905500Y-10586625D01*
X8905383Y-10589014D01*
X8905032Y-10591380D01*
X8904450Y-10593701D01*
X8903645Y-10595953D01*
X8902622Y-10598115D01*
X8901392Y-10600167D01*
X8899967Y-10602088D01*
X8898361Y-10603861D01*
X8896588Y-10605467D01*
X8894667Y-10606892D01*
X8892615Y-10608122D01*
X8890453Y-10609145D01*
X8888201Y-10609950D01*
X8885880Y-10610532D01*
X8883514Y-10610883D01*
X8881125Y-10611000D01*
X8832375Y-10611000D01*
X8829986Y-10610883D01*
X8827620Y-10610532D01*
X8825299Y-10609950D01*
X8823047Y-10609145D01*
X8820885Y-10608122D01*
X8818833Y-10606892D01*
X8816912Y-10605467D01*
X8815139Y-10603861D01*
X8813533Y-10602088D01*
X8812108Y-10600167D01*
X8810878Y-10598115D01*
X8809855Y-10595953D01*
X8809050Y-10593701D01*
X8808468Y-10591380D01*
X8808117Y-10589014D01*
X8808000Y-10586625D01*
X8808000Y-10495375D01*
X8808117Y-10492986D01*
X8808468Y-10490620D01*
X8809050Y-10488299D01*
X8809855Y-10486047D01*
X8810878Y-10483885D01*
X8812108Y-10481833D01*
X8813533Y-10479912D01*
X8815139Y-10478139D01*
X8816912Y-10476533D01*
X8818833Y-10475108D01*
X8820885Y-10473878D01*
X8823047Y-10472855D01*
X8825299Y-10472050D01*
X8827620Y-10471468D01*
X8829986Y-10471117D01*
X8832375Y-10471000D01*
X8881125Y-10471000D01*
X8883514Y-10471117D01*
G37*
G04 #@! TD.AperFunction*
G04 #@! TA.AperFunction,SMDPad,CuDef*
G36*
X8883514Y-6915117D02*
G01*
X8885880Y-6915468D01*
X8888201Y-6916050D01*
X8890453Y-6916855D01*
X8892615Y-6917878D01*
X8894667Y-6919108D01*
X8896588Y-6920533D01*
X8898361Y-6922139D01*
X8899967Y-6923912D01*
X8901392Y-6925833D01*
X8902622Y-6927885D01*
X8903645Y-6930047D01*
X8904450Y-6932299D01*
X8905032Y-6934620D01*
X8905383Y-6936986D01*
X8905500Y-6939375D01*
X8905500Y-7030625D01*
X8905383Y-7033014D01*
X8905032Y-7035380D01*
X8904450Y-7037701D01*
X8903645Y-7039953D01*
X8902622Y-7042115D01*
X8901392Y-7044167D01*
X8899967Y-7046088D01*
X8898361Y-7047861D01*
X8896588Y-7049467D01*
X8894667Y-7050892D01*
X8892615Y-7052122D01*
X8890453Y-7053145D01*
X8888201Y-7053950D01*
X8885880Y-7054532D01*
X8883514Y-7054883D01*
X8881125Y-7055000D01*
X8832375Y-7055000D01*
X8829986Y-7054883D01*
X8827620Y-7054532D01*
X8825299Y-7053950D01*
X8823047Y-7053145D01*
X8820885Y-7052122D01*
X8818833Y-7050892D01*
X8816912Y-7049467D01*
X8815139Y-7047861D01*
X8813533Y-7046088D01*
X8812108Y-7044167D01*
X8810878Y-7042115D01*
X8809855Y-7039953D01*
X8809050Y-7037701D01*
X8808468Y-7035380D01*
X8808117Y-7033014D01*
X8808000Y-7030625D01*
X8808000Y-6939375D01*
X8808117Y-6936986D01*
X8808468Y-6934620D01*
X8809050Y-6932299D01*
X8809855Y-6930047D01*
X8810878Y-6927885D01*
X8812108Y-6925833D01*
X8813533Y-6923912D01*
X8815139Y-6922139D01*
X8816912Y-6920533D01*
X8818833Y-6919108D01*
X8820885Y-6917878D01*
X8823047Y-6916855D01*
X8825299Y-6916050D01*
X8827620Y-6915468D01*
X8829986Y-6915117D01*
X8832375Y-6915000D01*
X8881125Y-6915000D01*
X8883514Y-6915117D01*
G37*
G04 #@! TD.AperFunction*
G04 #@! TA.AperFunction,SMDPad,CuDef*
G36*
X8696014Y-6915117D02*
G01*
X8698380Y-6915468D01*
X8700701Y-6916050D01*
X8702953Y-6916855D01*
X8705115Y-6917878D01*
X8707167Y-6919108D01*
X8709088Y-6920533D01*
X8710861Y-6922139D01*
X8712467Y-6923912D01*
X8713892Y-6925833D01*
X8715122Y-6927885D01*
X8716145Y-6930047D01*
X8716950Y-6932299D01*
X8717532Y-6934620D01*
X8717883Y-6936986D01*
X8718000Y-6939375D01*
X8718000Y-7030625D01*
X8717883Y-7033014D01*
X8717532Y-7035380D01*
X8716950Y-7037701D01*
X8716145Y-7039953D01*
X8715122Y-7042115D01*
X8713892Y-7044167D01*
X8712467Y-7046088D01*
X8710861Y-7047861D01*
X8709088Y-7049467D01*
X8707167Y-7050892D01*
X8705115Y-7052122D01*
X8702953Y-7053145D01*
X8700701Y-7053950D01*
X8698380Y-7054532D01*
X8696014Y-7054883D01*
X8693625Y-7055000D01*
X8644875Y-7055000D01*
X8642486Y-7054883D01*
X8640120Y-7054532D01*
X8637799Y-7053950D01*
X8635547Y-7053145D01*
X8633385Y-7052122D01*
X8631333Y-7050892D01*
X8629412Y-7049467D01*
X8627639Y-7047861D01*
X8626033Y-7046088D01*
X8624608Y-7044167D01*
X8623378Y-7042115D01*
X8622355Y-7039953D01*
X8621550Y-7037701D01*
X8620968Y-7035380D01*
X8620617Y-7033014D01*
X8620500Y-7030625D01*
X8620500Y-6939375D01*
X8620617Y-6936986D01*
X8620968Y-6934620D01*
X8621550Y-6932299D01*
X8622355Y-6930047D01*
X8623378Y-6927885D01*
X8624608Y-6925833D01*
X8626033Y-6923912D01*
X8627639Y-6922139D01*
X8629412Y-6920533D01*
X8631333Y-6919108D01*
X8633385Y-6917878D01*
X8635547Y-6916855D01*
X8637799Y-6916050D01*
X8640120Y-6915468D01*
X8642486Y-6915117D01*
X8644875Y-6915000D01*
X8693625Y-6915000D01*
X8696014Y-6915117D01*
G37*
G04 #@! TD.AperFunction*
G04 #@! TA.AperFunction,SMDPad,CuDef*
G36*
X6343514Y-10471117D02*
G01*
X6345880Y-10471468D01*
X6348201Y-10472050D01*
X6350453Y-10472855D01*
X6352615Y-10473878D01*
X6354667Y-10475108D01*
X6356588Y-10476533D01*
X6358361Y-10478139D01*
X6359967Y-10479912D01*
X6361392Y-10481833D01*
X6362622Y-10483885D01*
X6363645Y-10486047D01*
X6364450Y-10488299D01*
X6365032Y-10490620D01*
X6365383Y-10492986D01*
X6365500Y-10495375D01*
X6365500Y-10586625D01*
X6365383Y-10589014D01*
X6365032Y-10591380D01*
X6364450Y-10593701D01*
X6363645Y-10595953D01*
X6362622Y-10598115D01*
X6361392Y-10600167D01*
X6359967Y-10602088D01*
X6358361Y-10603861D01*
X6356588Y-10605467D01*
X6354667Y-10606892D01*
X6352615Y-10608122D01*
X6350453Y-10609145D01*
X6348201Y-10609950D01*
X6345880Y-10610532D01*
X6343514Y-10610883D01*
X6341125Y-10611000D01*
X6292375Y-10611000D01*
X6289986Y-10610883D01*
X6287620Y-10610532D01*
X6285299Y-10609950D01*
X6283047Y-10609145D01*
X6280885Y-10608122D01*
X6278833Y-10606892D01*
X6276912Y-10605467D01*
X6275139Y-10603861D01*
X6273533Y-10602088D01*
X6272108Y-10600167D01*
X6270878Y-10598115D01*
X6269855Y-10595953D01*
X6269050Y-10593701D01*
X6268468Y-10591380D01*
X6268117Y-10589014D01*
X6268000Y-10586625D01*
X6268000Y-10495375D01*
X6268117Y-10492986D01*
X6268468Y-10490620D01*
X6269050Y-10488299D01*
X6269855Y-10486047D01*
X6270878Y-10483885D01*
X6272108Y-10481833D01*
X6273533Y-10479912D01*
X6275139Y-10478139D01*
X6276912Y-10476533D01*
X6278833Y-10475108D01*
X6280885Y-10473878D01*
X6283047Y-10472855D01*
X6285299Y-10472050D01*
X6287620Y-10471468D01*
X6289986Y-10471117D01*
X6292375Y-10471000D01*
X6341125Y-10471000D01*
X6343514Y-10471117D01*
G37*
G04 #@! TD.AperFunction*
G04 #@! TA.AperFunction,SMDPad,CuDef*
G36*
X6156014Y-10471117D02*
G01*
X6158380Y-10471468D01*
X6160701Y-10472050D01*
X6162953Y-10472855D01*
X6165115Y-10473878D01*
X6167167Y-10475108D01*
X6169088Y-10476533D01*
X6170861Y-10478139D01*
X6172467Y-10479912D01*
X6173892Y-10481833D01*
X6175122Y-10483885D01*
X6176145Y-10486047D01*
X6176950Y-10488299D01*
X6177532Y-10490620D01*
X6177883Y-10492986D01*
X6178000Y-10495375D01*
X6178000Y-10586625D01*
X6177883Y-10589014D01*
X6177532Y-10591380D01*
X6176950Y-10593701D01*
X6176145Y-10595953D01*
X6175122Y-10598115D01*
X6173892Y-10600167D01*
X6172467Y-10602088D01*
X6170861Y-10603861D01*
X6169088Y-10605467D01*
X6167167Y-10606892D01*
X6165115Y-10608122D01*
X6162953Y-10609145D01*
X6160701Y-10609950D01*
X6158380Y-10610532D01*
X6156014Y-10610883D01*
X6153625Y-10611000D01*
X6104875Y-10611000D01*
X6102486Y-10610883D01*
X6100120Y-10610532D01*
X6097799Y-10609950D01*
X6095547Y-10609145D01*
X6093385Y-10608122D01*
X6091333Y-10606892D01*
X6089412Y-10605467D01*
X6087639Y-10603861D01*
X6086033Y-10602088D01*
X6084608Y-10600167D01*
X6083378Y-10598115D01*
X6082355Y-10595953D01*
X6081550Y-10593701D01*
X6080968Y-10591380D01*
X6080617Y-10589014D01*
X6080500Y-10586625D01*
X6080500Y-10495375D01*
X6080617Y-10492986D01*
X6080968Y-10490620D01*
X6081550Y-10488299D01*
X6082355Y-10486047D01*
X6083378Y-10483885D01*
X6084608Y-10481833D01*
X6086033Y-10479912D01*
X6087639Y-10478139D01*
X6089412Y-10476533D01*
X6091333Y-10475108D01*
X6093385Y-10473878D01*
X6095547Y-10472855D01*
X6097799Y-10472050D01*
X6100120Y-10471468D01*
X6102486Y-10471117D01*
X6104875Y-10471000D01*
X6153625Y-10471000D01*
X6156014Y-10471117D01*
G37*
G04 #@! TD.AperFunction*
G04 #@! TA.AperFunction,SMDPad,CuDef*
G36*
X6216514Y-6915117D02*
G01*
X6218880Y-6915468D01*
X6221201Y-6916050D01*
X6223453Y-6916855D01*
X6225615Y-6917878D01*
X6227667Y-6919108D01*
X6229588Y-6920533D01*
X6231361Y-6922139D01*
X6232967Y-6923912D01*
X6234392Y-6925833D01*
X6235622Y-6927885D01*
X6236645Y-6930047D01*
X6237450Y-6932299D01*
X6238032Y-6934620D01*
X6238383Y-6936986D01*
X6238500Y-6939375D01*
X6238500Y-7030625D01*
X6238383Y-7033014D01*
X6238032Y-7035380D01*
X6237450Y-7037701D01*
X6236645Y-7039953D01*
X6235622Y-7042115D01*
X6234392Y-7044167D01*
X6232967Y-7046088D01*
X6231361Y-7047861D01*
X6229588Y-7049467D01*
X6227667Y-7050892D01*
X6225615Y-7052122D01*
X6223453Y-7053145D01*
X6221201Y-7053950D01*
X6218880Y-7054532D01*
X6216514Y-7054883D01*
X6214125Y-7055000D01*
X6165375Y-7055000D01*
X6162986Y-7054883D01*
X6160620Y-7054532D01*
X6158299Y-7053950D01*
X6156047Y-7053145D01*
X6153885Y-7052122D01*
X6151833Y-7050892D01*
X6149912Y-7049467D01*
X6148139Y-7047861D01*
X6146533Y-7046088D01*
X6145108Y-7044167D01*
X6143878Y-7042115D01*
X6142855Y-7039953D01*
X6142050Y-7037701D01*
X6141468Y-7035380D01*
X6141117Y-7033014D01*
X6141000Y-7030625D01*
X6141000Y-6939375D01*
X6141117Y-6936986D01*
X6141468Y-6934620D01*
X6142050Y-6932299D01*
X6142855Y-6930047D01*
X6143878Y-6927885D01*
X6145108Y-6925833D01*
X6146533Y-6923912D01*
X6148139Y-6922139D01*
X6149912Y-6920533D01*
X6151833Y-6919108D01*
X6153885Y-6917878D01*
X6156047Y-6916855D01*
X6158299Y-6916050D01*
X6160620Y-6915468D01*
X6162986Y-6915117D01*
X6165375Y-6915000D01*
X6214125Y-6915000D01*
X6216514Y-6915117D01*
G37*
G04 #@! TD.AperFunction*
G04 #@! TA.AperFunction,SMDPad,CuDef*
G36*
X6029014Y-6915117D02*
G01*
X6031380Y-6915468D01*
X6033701Y-6916050D01*
X6035953Y-6916855D01*
X6038115Y-6917878D01*
X6040167Y-6919108D01*
X6042088Y-6920533D01*
X6043861Y-6922139D01*
X6045467Y-6923912D01*
X6046892Y-6925833D01*
X6048122Y-6927885D01*
X6049145Y-6930047D01*
X6049950Y-6932299D01*
X6050532Y-6934620D01*
X6050883Y-6936986D01*
X6051000Y-6939375D01*
X6051000Y-7030625D01*
X6050883Y-7033014D01*
X6050532Y-7035380D01*
X6049950Y-7037701D01*
X6049145Y-7039953D01*
X6048122Y-7042115D01*
X6046892Y-7044167D01*
X6045467Y-7046088D01*
X6043861Y-7047861D01*
X6042088Y-7049467D01*
X6040167Y-7050892D01*
X6038115Y-7052122D01*
X6035953Y-7053145D01*
X6033701Y-7053950D01*
X6031380Y-7054532D01*
X6029014Y-7054883D01*
X6026625Y-7055000D01*
X5977875Y-7055000D01*
X5975486Y-7054883D01*
X5973120Y-7054532D01*
X5970799Y-7053950D01*
X5968547Y-7053145D01*
X5966385Y-7052122D01*
X5964333Y-7050892D01*
X5962412Y-7049467D01*
X5960639Y-7047861D01*
X5959033Y-7046088D01*
X5957608Y-7044167D01*
X5956378Y-7042115D01*
X5955355Y-7039953D01*
X5954550Y-7037701D01*
X5953968Y-7035380D01*
X5953617Y-7033014D01*
X5953500Y-7030625D01*
X5953500Y-6939375D01*
X5953617Y-6936986D01*
X5953968Y-6934620D01*
X5954550Y-6932299D01*
X5955355Y-6930047D01*
X5956378Y-6927885D01*
X5957608Y-6925833D01*
X5959033Y-6923912D01*
X5960639Y-6922139D01*
X5962412Y-6920533D01*
X5964333Y-6919108D01*
X5966385Y-6917878D01*
X5968547Y-6916855D01*
X5970799Y-6916050D01*
X5973120Y-6915468D01*
X5975486Y-6915117D01*
X5977875Y-6915000D01*
X6026625Y-6915000D01*
X6029014Y-6915117D01*
G37*
G04 #@! TD.AperFunction*
G04 #@! TA.AperFunction,SMDPad,CuDef*
G36*
X6343514Y-10725117D02*
G01*
X6345880Y-10725468D01*
X6348201Y-10726050D01*
X6350453Y-10726855D01*
X6352615Y-10727878D01*
X6354667Y-10729108D01*
X6356588Y-10730533D01*
X6358361Y-10732139D01*
X6359967Y-10733912D01*
X6361392Y-10735833D01*
X6362622Y-10737885D01*
X6363645Y-10740047D01*
X6364450Y-10742299D01*
X6365032Y-10744620D01*
X6365383Y-10746986D01*
X6365500Y-10749375D01*
X6365500Y-10840625D01*
X6365383Y-10843014D01*
X6365032Y-10845380D01*
X6364450Y-10847701D01*
X6363645Y-10849953D01*
X6362622Y-10852115D01*
X6361392Y-10854167D01*
X6359967Y-10856088D01*
X6358361Y-10857861D01*
X6356588Y-10859467D01*
X6354667Y-10860892D01*
X6352615Y-10862122D01*
X6350453Y-10863145D01*
X6348201Y-10863950D01*
X6345880Y-10864532D01*
X6343514Y-10864883D01*
X6341125Y-10865000D01*
X6292375Y-10865000D01*
X6289986Y-10864883D01*
X6287620Y-10864532D01*
X6285299Y-10863950D01*
X6283047Y-10863145D01*
X6280885Y-10862122D01*
X6278833Y-10860892D01*
X6276912Y-10859467D01*
X6275139Y-10857861D01*
X6273533Y-10856088D01*
X6272108Y-10854167D01*
X6270878Y-10852115D01*
X6269855Y-10849953D01*
X6269050Y-10847701D01*
X6268468Y-10845380D01*
X6268117Y-10843014D01*
X6268000Y-10840625D01*
X6268000Y-10749375D01*
X6268117Y-10746986D01*
X6268468Y-10744620D01*
X6269050Y-10742299D01*
X6269855Y-10740047D01*
X6270878Y-10737885D01*
X6272108Y-10735833D01*
X6273533Y-10733912D01*
X6275139Y-10732139D01*
X6276912Y-10730533D01*
X6278833Y-10729108D01*
X6280885Y-10727878D01*
X6283047Y-10726855D01*
X6285299Y-10726050D01*
X6287620Y-10725468D01*
X6289986Y-10725117D01*
X6292375Y-10725000D01*
X6341125Y-10725000D01*
X6343514Y-10725117D01*
G37*
G04 #@! TD.AperFunction*
G04 #@! TA.AperFunction,SMDPad,CuDef*
G36*
X6156014Y-10725117D02*
G01*
X6158380Y-10725468D01*
X6160701Y-10726050D01*
X6162953Y-10726855D01*
X6165115Y-10727878D01*
X6167167Y-10729108D01*
X6169088Y-10730533D01*
X6170861Y-10732139D01*
X6172467Y-10733912D01*
X6173892Y-10735833D01*
X6175122Y-10737885D01*
X6176145Y-10740047D01*
X6176950Y-10742299D01*
X6177532Y-10744620D01*
X6177883Y-10746986D01*
X6178000Y-10749375D01*
X6178000Y-10840625D01*
X6177883Y-10843014D01*
X6177532Y-10845380D01*
X6176950Y-10847701D01*
X6176145Y-10849953D01*
X6175122Y-10852115D01*
X6173892Y-10854167D01*
X6172467Y-10856088D01*
X6170861Y-10857861D01*
X6169088Y-10859467D01*
X6167167Y-10860892D01*
X6165115Y-10862122D01*
X6162953Y-10863145D01*
X6160701Y-10863950D01*
X6158380Y-10864532D01*
X6156014Y-10864883D01*
X6153625Y-10865000D01*
X6104875Y-10865000D01*
X6102486Y-10864883D01*
X6100120Y-10864532D01*
X6097799Y-10863950D01*
X6095547Y-10863145D01*
X6093385Y-10862122D01*
X6091333Y-10860892D01*
X6089412Y-10859467D01*
X6087639Y-10857861D01*
X6086033Y-10856088D01*
X6084608Y-10854167D01*
X6083378Y-10852115D01*
X6082355Y-10849953D01*
X6081550Y-10847701D01*
X6080968Y-10845380D01*
X6080617Y-10843014D01*
X6080500Y-10840625D01*
X6080500Y-10749375D01*
X6080617Y-10746986D01*
X6080968Y-10744620D01*
X6081550Y-10742299D01*
X6082355Y-10740047D01*
X6083378Y-10737885D01*
X6084608Y-10735833D01*
X6086033Y-10733912D01*
X6087639Y-10732139D01*
X6089412Y-10730533D01*
X6091333Y-10729108D01*
X6093385Y-10727878D01*
X6095547Y-10726855D01*
X6097799Y-10726050D01*
X6100120Y-10725468D01*
X6102486Y-10725117D01*
X6104875Y-10725000D01*
X6153625Y-10725000D01*
X6156014Y-10725117D01*
G37*
G04 #@! TD.AperFunction*
G04 #@! TA.AperFunction,SMDPad,CuDef*
G36*
X6216514Y-7169117D02*
G01*
X6218880Y-7169468D01*
X6221201Y-7170050D01*
X6223453Y-7170855D01*
X6225615Y-7171878D01*
X6227667Y-7173108D01*
X6229588Y-7174533D01*
X6231361Y-7176139D01*
X6232967Y-7177912D01*
X6234392Y-7179833D01*
X6235622Y-7181885D01*
X6236645Y-7184047D01*
X6237450Y-7186299D01*
X6238032Y-7188620D01*
X6238383Y-7190986D01*
X6238500Y-7193375D01*
X6238500Y-7284625D01*
X6238383Y-7287014D01*
X6238032Y-7289380D01*
X6237450Y-7291701D01*
X6236645Y-7293953D01*
X6235622Y-7296115D01*
X6234392Y-7298167D01*
X6232967Y-7300088D01*
X6231361Y-7301861D01*
X6229588Y-7303467D01*
X6227667Y-7304892D01*
X6225615Y-7306122D01*
X6223453Y-7307145D01*
X6221201Y-7307950D01*
X6218880Y-7308532D01*
X6216514Y-7308883D01*
X6214125Y-7309000D01*
X6165375Y-7309000D01*
X6162986Y-7308883D01*
X6160620Y-7308532D01*
X6158299Y-7307950D01*
X6156047Y-7307145D01*
X6153885Y-7306122D01*
X6151833Y-7304892D01*
X6149912Y-7303467D01*
X6148139Y-7301861D01*
X6146533Y-7300088D01*
X6145108Y-7298167D01*
X6143878Y-7296115D01*
X6142855Y-7293953D01*
X6142050Y-7291701D01*
X6141468Y-7289380D01*
X6141117Y-7287014D01*
X6141000Y-7284625D01*
X6141000Y-7193375D01*
X6141117Y-7190986D01*
X6141468Y-7188620D01*
X6142050Y-7186299D01*
X6142855Y-7184047D01*
X6143878Y-7181885D01*
X6145108Y-7179833D01*
X6146533Y-7177912D01*
X6148139Y-7176139D01*
X6149912Y-7174533D01*
X6151833Y-7173108D01*
X6153885Y-7171878D01*
X6156047Y-7170855D01*
X6158299Y-7170050D01*
X6160620Y-7169468D01*
X6162986Y-7169117D01*
X6165375Y-7169000D01*
X6214125Y-7169000D01*
X6216514Y-7169117D01*
G37*
G04 #@! TD.AperFunction*
G04 #@! TA.AperFunction,SMDPad,CuDef*
G36*
X6029014Y-7169117D02*
G01*
X6031380Y-7169468D01*
X6033701Y-7170050D01*
X6035953Y-7170855D01*
X6038115Y-7171878D01*
X6040167Y-7173108D01*
X6042088Y-7174533D01*
X6043861Y-7176139D01*
X6045467Y-7177912D01*
X6046892Y-7179833D01*
X6048122Y-7181885D01*
X6049145Y-7184047D01*
X6049950Y-7186299D01*
X6050532Y-7188620D01*
X6050883Y-7190986D01*
X6051000Y-7193375D01*
X6051000Y-7284625D01*
X6050883Y-7287014D01*
X6050532Y-7289380D01*
X6049950Y-7291701D01*
X6049145Y-7293953D01*
X6048122Y-7296115D01*
X6046892Y-7298167D01*
X6045467Y-7300088D01*
X6043861Y-7301861D01*
X6042088Y-7303467D01*
X6040167Y-7304892D01*
X6038115Y-7306122D01*
X6035953Y-7307145D01*
X6033701Y-7307950D01*
X6031380Y-7308532D01*
X6029014Y-7308883D01*
X6026625Y-7309000D01*
X5977875Y-7309000D01*
X5975486Y-7308883D01*
X5973120Y-7308532D01*
X5970799Y-7307950D01*
X5968547Y-7307145D01*
X5966385Y-7306122D01*
X5964333Y-7304892D01*
X5962412Y-7303467D01*
X5960639Y-7301861D01*
X5959033Y-7300088D01*
X5957608Y-7298167D01*
X5956378Y-7296115D01*
X5955355Y-7293953D01*
X5954550Y-7291701D01*
X5953968Y-7289380D01*
X5953617Y-7287014D01*
X5953500Y-7284625D01*
X5953500Y-7193375D01*
X5953617Y-7190986D01*
X5953968Y-7188620D01*
X5954550Y-7186299D01*
X5955355Y-7184047D01*
X5956378Y-7181885D01*
X5957608Y-7179833D01*
X5959033Y-7177912D01*
X5960639Y-7176139D01*
X5962412Y-7174533D01*
X5964333Y-7173108D01*
X5966385Y-7171878D01*
X5968547Y-7170855D01*
X5970799Y-7170050D01*
X5973120Y-7169468D01*
X5975486Y-7169117D01*
X5977875Y-7169000D01*
X6026625Y-7169000D01*
X6029014Y-7169117D01*
G37*
G04 #@! TD.AperFunction*
G04 #@! TA.AperFunction,SMDPad,CuDef*
G36*
X6343514Y-10979117D02*
G01*
X6345880Y-10979468D01*
X6348201Y-10980050D01*
X6350453Y-10980855D01*
X6352615Y-10981878D01*
X6354667Y-10983108D01*
X6356588Y-10984533D01*
X6358361Y-10986139D01*
X6359967Y-10987912D01*
X6361392Y-10989833D01*
X6362622Y-10991885D01*
X6363645Y-10994047D01*
X6364450Y-10996299D01*
X6365032Y-10998620D01*
X6365383Y-11000986D01*
X6365500Y-11003375D01*
X6365500Y-11094625D01*
X6365383Y-11097014D01*
X6365032Y-11099380D01*
X6364450Y-11101701D01*
X6363645Y-11103953D01*
X6362622Y-11106115D01*
X6361392Y-11108167D01*
X6359967Y-11110088D01*
X6358361Y-11111861D01*
X6356588Y-11113467D01*
X6354667Y-11114892D01*
X6352615Y-11116122D01*
X6350453Y-11117145D01*
X6348201Y-11117950D01*
X6345880Y-11118532D01*
X6343514Y-11118883D01*
X6341125Y-11119000D01*
X6292375Y-11119000D01*
X6289986Y-11118883D01*
X6287620Y-11118532D01*
X6285299Y-11117950D01*
X6283047Y-11117145D01*
X6280885Y-11116122D01*
X6278833Y-11114892D01*
X6276912Y-11113467D01*
X6275139Y-11111861D01*
X6273533Y-11110088D01*
X6272108Y-11108167D01*
X6270878Y-11106115D01*
X6269855Y-11103953D01*
X6269050Y-11101701D01*
X6268468Y-11099380D01*
X6268117Y-11097014D01*
X6268000Y-11094625D01*
X6268000Y-11003375D01*
X6268117Y-11000986D01*
X6268468Y-10998620D01*
X6269050Y-10996299D01*
X6269855Y-10994047D01*
X6270878Y-10991885D01*
X6272108Y-10989833D01*
X6273533Y-10987912D01*
X6275139Y-10986139D01*
X6276912Y-10984533D01*
X6278833Y-10983108D01*
X6280885Y-10981878D01*
X6283047Y-10980855D01*
X6285299Y-10980050D01*
X6287620Y-10979468D01*
X6289986Y-10979117D01*
X6292375Y-10979000D01*
X6341125Y-10979000D01*
X6343514Y-10979117D01*
G37*
G04 #@! TD.AperFunction*
G04 #@! TA.AperFunction,SMDPad,CuDef*
G36*
X6156014Y-10979117D02*
G01*
X6158380Y-10979468D01*
X6160701Y-10980050D01*
X6162953Y-10980855D01*
X6165115Y-10981878D01*
X6167167Y-10983108D01*
X6169088Y-10984533D01*
X6170861Y-10986139D01*
X6172467Y-10987912D01*
X6173892Y-10989833D01*
X6175122Y-10991885D01*
X6176145Y-10994047D01*
X6176950Y-10996299D01*
X6177532Y-10998620D01*
X6177883Y-11000986D01*
X6178000Y-11003375D01*
X6178000Y-11094625D01*
X6177883Y-11097014D01*
X6177532Y-11099380D01*
X6176950Y-11101701D01*
X6176145Y-11103953D01*
X6175122Y-11106115D01*
X6173892Y-11108167D01*
X6172467Y-11110088D01*
X6170861Y-11111861D01*
X6169088Y-11113467D01*
X6167167Y-11114892D01*
X6165115Y-11116122D01*
X6162953Y-11117145D01*
X6160701Y-11117950D01*
X6158380Y-11118532D01*
X6156014Y-11118883D01*
X6153625Y-11119000D01*
X6104875Y-11119000D01*
X6102486Y-11118883D01*
X6100120Y-11118532D01*
X6097799Y-11117950D01*
X6095547Y-11117145D01*
X6093385Y-11116122D01*
X6091333Y-11114892D01*
X6089412Y-11113467D01*
X6087639Y-11111861D01*
X6086033Y-11110088D01*
X6084608Y-11108167D01*
X6083378Y-11106115D01*
X6082355Y-11103953D01*
X6081550Y-11101701D01*
X6080968Y-11099380D01*
X6080617Y-11097014D01*
X6080500Y-11094625D01*
X6080500Y-11003375D01*
X6080617Y-11000986D01*
X6080968Y-10998620D01*
X6081550Y-10996299D01*
X6082355Y-10994047D01*
X6083378Y-10991885D01*
X6084608Y-10989833D01*
X6086033Y-10987912D01*
X6087639Y-10986139D01*
X6089412Y-10984533D01*
X6091333Y-10983108D01*
X6093385Y-10981878D01*
X6095547Y-10980855D01*
X6097799Y-10980050D01*
X6100120Y-10979468D01*
X6102486Y-10979117D01*
X6104875Y-10979000D01*
X6153625Y-10979000D01*
X6156014Y-10979117D01*
G37*
G04 #@! TD.AperFunction*
G04 #@! TA.AperFunction,SMDPad,CuDef*
G36*
X6216514Y-7423117D02*
G01*
X6218880Y-7423468D01*
X6221201Y-7424050D01*
X6223453Y-7424855D01*
X6225615Y-7425878D01*
X6227667Y-7427108D01*
X6229588Y-7428533D01*
X6231361Y-7430139D01*
X6232967Y-7431912D01*
X6234392Y-7433833D01*
X6235622Y-7435885D01*
X6236645Y-7438047D01*
X6237450Y-7440299D01*
X6238032Y-7442620D01*
X6238383Y-7444986D01*
X6238500Y-7447375D01*
X6238500Y-7538625D01*
X6238383Y-7541014D01*
X6238032Y-7543380D01*
X6237450Y-7545701D01*
X6236645Y-7547953D01*
X6235622Y-7550115D01*
X6234392Y-7552167D01*
X6232967Y-7554088D01*
X6231361Y-7555861D01*
X6229588Y-7557467D01*
X6227667Y-7558892D01*
X6225615Y-7560122D01*
X6223453Y-7561145D01*
X6221201Y-7561950D01*
X6218880Y-7562532D01*
X6216514Y-7562883D01*
X6214125Y-7563000D01*
X6165375Y-7563000D01*
X6162986Y-7562883D01*
X6160620Y-7562532D01*
X6158299Y-7561950D01*
X6156047Y-7561145D01*
X6153885Y-7560122D01*
X6151833Y-7558892D01*
X6149912Y-7557467D01*
X6148139Y-7555861D01*
X6146533Y-7554088D01*
X6145108Y-7552167D01*
X6143878Y-7550115D01*
X6142855Y-7547953D01*
X6142050Y-7545701D01*
X6141468Y-7543380D01*
X6141117Y-7541014D01*
X6141000Y-7538625D01*
X6141000Y-7447375D01*
X6141117Y-7444986D01*
X6141468Y-7442620D01*
X6142050Y-7440299D01*
X6142855Y-7438047D01*
X6143878Y-7435885D01*
X6145108Y-7433833D01*
X6146533Y-7431912D01*
X6148139Y-7430139D01*
X6149912Y-7428533D01*
X6151833Y-7427108D01*
X6153885Y-7425878D01*
X6156047Y-7424855D01*
X6158299Y-7424050D01*
X6160620Y-7423468D01*
X6162986Y-7423117D01*
X6165375Y-7423000D01*
X6214125Y-7423000D01*
X6216514Y-7423117D01*
G37*
G04 #@! TD.AperFunction*
G04 #@! TA.AperFunction,SMDPad,CuDef*
G36*
X6029014Y-7423117D02*
G01*
X6031380Y-7423468D01*
X6033701Y-7424050D01*
X6035953Y-7424855D01*
X6038115Y-7425878D01*
X6040167Y-7427108D01*
X6042088Y-7428533D01*
X6043861Y-7430139D01*
X6045467Y-7431912D01*
X6046892Y-7433833D01*
X6048122Y-7435885D01*
X6049145Y-7438047D01*
X6049950Y-7440299D01*
X6050532Y-7442620D01*
X6050883Y-7444986D01*
X6051000Y-7447375D01*
X6051000Y-7538625D01*
X6050883Y-7541014D01*
X6050532Y-7543380D01*
X6049950Y-7545701D01*
X6049145Y-7547953D01*
X6048122Y-7550115D01*
X6046892Y-7552167D01*
X6045467Y-7554088D01*
X6043861Y-7555861D01*
X6042088Y-7557467D01*
X6040167Y-7558892D01*
X6038115Y-7560122D01*
X6035953Y-7561145D01*
X6033701Y-7561950D01*
X6031380Y-7562532D01*
X6029014Y-7562883D01*
X6026625Y-7563000D01*
X5977875Y-7563000D01*
X5975486Y-7562883D01*
X5973120Y-7562532D01*
X5970799Y-7561950D01*
X5968547Y-7561145D01*
X5966385Y-7560122D01*
X5964333Y-7558892D01*
X5962412Y-7557467D01*
X5960639Y-7555861D01*
X5959033Y-7554088D01*
X5957608Y-7552167D01*
X5956378Y-7550115D01*
X5955355Y-7547953D01*
X5954550Y-7545701D01*
X5953968Y-7543380D01*
X5953617Y-7541014D01*
X5953500Y-7538625D01*
X5953500Y-7447375D01*
X5953617Y-7444986D01*
X5953968Y-7442620D01*
X5954550Y-7440299D01*
X5955355Y-7438047D01*
X5956378Y-7435885D01*
X5957608Y-7433833D01*
X5959033Y-7431912D01*
X5960639Y-7430139D01*
X5962412Y-7428533D01*
X5964333Y-7427108D01*
X5966385Y-7425878D01*
X5968547Y-7424855D01*
X5970799Y-7424050D01*
X5973120Y-7423468D01*
X5975486Y-7423117D01*
X5977875Y-7423000D01*
X6026625Y-7423000D01*
X6029014Y-7423117D01*
G37*
G04 #@! TD.AperFunction*
G04 #@! TA.AperFunction,SMDPad,CuDef*
G36*
X6343514Y-11233117D02*
G01*
X6345880Y-11233468D01*
X6348201Y-11234050D01*
X6350453Y-11234855D01*
X6352615Y-11235878D01*
X6354667Y-11237108D01*
X6356588Y-11238533D01*
X6358361Y-11240139D01*
X6359967Y-11241912D01*
X6361392Y-11243833D01*
X6362622Y-11245885D01*
X6363645Y-11248047D01*
X6364450Y-11250299D01*
X6365032Y-11252620D01*
X6365383Y-11254986D01*
X6365500Y-11257375D01*
X6365500Y-11348625D01*
X6365383Y-11351014D01*
X6365032Y-11353380D01*
X6364450Y-11355701D01*
X6363645Y-11357953D01*
X6362622Y-11360115D01*
X6361392Y-11362167D01*
X6359967Y-11364088D01*
X6358361Y-11365861D01*
X6356588Y-11367467D01*
X6354667Y-11368892D01*
X6352615Y-11370122D01*
X6350453Y-11371145D01*
X6348201Y-11371950D01*
X6345880Y-11372532D01*
X6343514Y-11372883D01*
X6341125Y-11373000D01*
X6292375Y-11373000D01*
X6289986Y-11372883D01*
X6287620Y-11372532D01*
X6285299Y-11371950D01*
X6283047Y-11371145D01*
X6280885Y-11370122D01*
X6278833Y-11368892D01*
X6276912Y-11367467D01*
X6275139Y-11365861D01*
X6273533Y-11364088D01*
X6272108Y-11362167D01*
X6270878Y-11360115D01*
X6269855Y-11357953D01*
X6269050Y-11355701D01*
X6268468Y-11353380D01*
X6268117Y-11351014D01*
X6268000Y-11348625D01*
X6268000Y-11257375D01*
X6268117Y-11254986D01*
X6268468Y-11252620D01*
X6269050Y-11250299D01*
X6269855Y-11248047D01*
X6270878Y-11245885D01*
X6272108Y-11243833D01*
X6273533Y-11241912D01*
X6275139Y-11240139D01*
X6276912Y-11238533D01*
X6278833Y-11237108D01*
X6280885Y-11235878D01*
X6283047Y-11234855D01*
X6285299Y-11234050D01*
X6287620Y-11233468D01*
X6289986Y-11233117D01*
X6292375Y-11233000D01*
X6341125Y-11233000D01*
X6343514Y-11233117D01*
G37*
G04 #@! TD.AperFunction*
G04 #@! TA.AperFunction,SMDPad,CuDef*
G36*
X6156014Y-11233117D02*
G01*
X6158380Y-11233468D01*
X6160701Y-11234050D01*
X6162953Y-11234855D01*
X6165115Y-11235878D01*
X6167167Y-11237108D01*
X6169088Y-11238533D01*
X6170861Y-11240139D01*
X6172467Y-11241912D01*
X6173892Y-11243833D01*
X6175122Y-11245885D01*
X6176145Y-11248047D01*
X6176950Y-11250299D01*
X6177532Y-11252620D01*
X6177883Y-11254986D01*
X6178000Y-11257375D01*
X6178000Y-11348625D01*
X6177883Y-11351014D01*
X6177532Y-11353380D01*
X6176950Y-11355701D01*
X6176145Y-11357953D01*
X6175122Y-11360115D01*
X6173892Y-11362167D01*
X6172467Y-11364088D01*
X6170861Y-11365861D01*
X6169088Y-11367467D01*
X6167167Y-11368892D01*
X6165115Y-11370122D01*
X6162953Y-11371145D01*
X6160701Y-11371950D01*
X6158380Y-11372532D01*
X6156014Y-11372883D01*
X6153625Y-11373000D01*
X6104875Y-11373000D01*
X6102486Y-11372883D01*
X6100120Y-11372532D01*
X6097799Y-11371950D01*
X6095547Y-11371145D01*
X6093385Y-11370122D01*
X6091333Y-11368892D01*
X6089412Y-11367467D01*
X6087639Y-11365861D01*
X6086033Y-11364088D01*
X6084608Y-11362167D01*
X6083378Y-11360115D01*
X6082355Y-11357953D01*
X6081550Y-11355701D01*
X6080968Y-11353380D01*
X6080617Y-11351014D01*
X6080500Y-11348625D01*
X6080500Y-11257375D01*
X6080617Y-11254986D01*
X6080968Y-11252620D01*
X6081550Y-11250299D01*
X6082355Y-11248047D01*
X6083378Y-11245885D01*
X6084608Y-11243833D01*
X6086033Y-11241912D01*
X6087639Y-11240139D01*
X6089412Y-11238533D01*
X6091333Y-11237108D01*
X6093385Y-11235878D01*
X6095547Y-11234855D01*
X6097799Y-11234050D01*
X6100120Y-11233468D01*
X6102486Y-11233117D01*
X6104875Y-11233000D01*
X6153625Y-11233000D01*
X6156014Y-11233117D01*
G37*
G04 #@! TD.AperFunction*
G04 #@! TA.AperFunction,SMDPad,CuDef*
G36*
X6216514Y-7677117D02*
G01*
X6218880Y-7677468D01*
X6221201Y-7678050D01*
X6223453Y-7678855D01*
X6225615Y-7679878D01*
X6227667Y-7681108D01*
X6229588Y-7682533D01*
X6231361Y-7684139D01*
X6232967Y-7685912D01*
X6234392Y-7687833D01*
X6235622Y-7689885D01*
X6236645Y-7692047D01*
X6237450Y-7694299D01*
X6238032Y-7696620D01*
X6238383Y-7698986D01*
X6238500Y-7701375D01*
X6238500Y-7792625D01*
X6238383Y-7795014D01*
X6238032Y-7797380D01*
X6237450Y-7799701D01*
X6236645Y-7801953D01*
X6235622Y-7804115D01*
X6234392Y-7806167D01*
X6232967Y-7808088D01*
X6231361Y-7809861D01*
X6229588Y-7811467D01*
X6227667Y-7812892D01*
X6225615Y-7814122D01*
X6223453Y-7815145D01*
X6221201Y-7815950D01*
X6218880Y-7816532D01*
X6216514Y-7816883D01*
X6214125Y-7817000D01*
X6165375Y-7817000D01*
X6162986Y-7816883D01*
X6160620Y-7816532D01*
X6158299Y-7815950D01*
X6156047Y-7815145D01*
X6153885Y-7814122D01*
X6151833Y-7812892D01*
X6149912Y-7811467D01*
X6148139Y-7809861D01*
X6146533Y-7808088D01*
X6145108Y-7806167D01*
X6143878Y-7804115D01*
X6142855Y-7801953D01*
X6142050Y-7799701D01*
X6141468Y-7797380D01*
X6141117Y-7795014D01*
X6141000Y-7792625D01*
X6141000Y-7701375D01*
X6141117Y-7698986D01*
X6141468Y-7696620D01*
X6142050Y-7694299D01*
X6142855Y-7692047D01*
X6143878Y-7689885D01*
X6145108Y-7687833D01*
X6146533Y-7685912D01*
X6148139Y-7684139D01*
X6149912Y-7682533D01*
X6151833Y-7681108D01*
X6153885Y-7679878D01*
X6156047Y-7678855D01*
X6158299Y-7678050D01*
X6160620Y-7677468D01*
X6162986Y-7677117D01*
X6165375Y-7677000D01*
X6214125Y-7677000D01*
X6216514Y-7677117D01*
G37*
G04 #@! TD.AperFunction*
G04 #@! TA.AperFunction,SMDPad,CuDef*
G36*
X6029014Y-7677117D02*
G01*
X6031380Y-7677468D01*
X6033701Y-7678050D01*
X6035953Y-7678855D01*
X6038115Y-7679878D01*
X6040167Y-7681108D01*
X6042088Y-7682533D01*
X6043861Y-7684139D01*
X6045467Y-7685912D01*
X6046892Y-7687833D01*
X6048122Y-7689885D01*
X6049145Y-7692047D01*
X6049950Y-7694299D01*
X6050532Y-7696620D01*
X6050883Y-7698986D01*
X6051000Y-7701375D01*
X6051000Y-7792625D01*
X6050883Y-7795014D01*
X6050532Y-7797380D01*
X6049950Y-7799701D01*
X6049145Y-7801953D01*
X6048122Y-7804115D01*
X6046892Y-7806167D01*
X6045467Y-7808088D01*
X6043861Y-7809861D01*
X6042088Y-7811467D01*
X6040167Y-7812892D01*
X6038115Y-7814122D01*
X6035953Y-7815145D01*
X6033701Y-7815950D01*
X6031380Y-7816532D01*
X6029014Y-7816883D01*
X6026625Y-7817000D01*
X5977875Y-7817000D01*
X5975486Y-7816883D01*
X5973120Y-7816532D01*
X5970799Y-7815950D01*
X5968547Y-7815145D01*
X5966385Y-7814122D01*
X5964333Y-7812892D01*
X5962412Y-7811467D01*
X5960639Y-7809861D01*
X5959033Y-7808088D01*
X5957608Y-7806167D01*
X5956378Y-7804115D01*
X5955355Y-7801953D01*
X5954550Y-7799701D01*
X5953968Y-7797380D01*
X5953617Y-7795014D01*
X5953500Y-7792625D01*
X5953500Y-7701375D01*
X5953617Y-7698986D01*
X5953968Y-7696620D01*
X5954550Y-7694299D01*
X5955355Y-7692047D01*
X5956378Y-7689885D01*
X5957608Y-7687833D01*
X5959033Y-7685912D01*
X5960639Y-7684139D01*
X5962412Y-7682533D01*
X5964333Y-7681108D01*
X5966385Y-7679878D01*
X5968547Y-7678855D01*
X5970799Y-7678050D01*
X5973120Y-7677468D01*
X5975486Y-7677117D01*
X5977875Y-7677000D01*
X6026625Y-7677000D01*
X6029014Y-7677117D01*
G37*
G04 #@! TD.AperFunction*
D13*
X8001000Y-8890000D03*
X7747000Y-8890000D03*
X7493000Y-8890000D03*
X7239000Y-8890000D03*
D14*
X6985000Y-8890000D03*
D15*
X6502000Y-7722000D03*
X6604000Y-11303000D03*
X6502000Y-7468000D03*
X6604000Y-11049000D03*
X6502000Y-7214000D03*
X6604000Y-10795000D03*
X6502000Y-6960000D03*
X6604000Y-10541000D03*
X8407000Y-6960000D03*
X8382000Y-10541000D03*
X8407000Y-6706000D03*
X8382000Y-10287000D03*
X8407000Y-6452000D03*
X8382000Y-10033000D03*
X6502000Y-6198000D03*
X6604000Y-9779000D03*
X6350000Y-10160000D03*
X8636000Y-7747000D03*
D16*
X8007001Y-8036061D02*
X8007001Y-7737001D01*
X7992000Y-7722000D02*
X7822000Y-7722000D01*
X8007001Y-7737001D02*
X7992000Y-7722000D01*
X8001000Y-8042062D02*
X8007001Y-8036061D01*
X8001000Y-8890000D02*
X8001000Y-8042062D01*
X7704000Y-11303000D02*
X7874000Y-11303000D01*
X7688999Y-11287999D02*
X7704000Y-11303000D01*
X7688999Y-9202001D02*
X7688999Y-11287999D01*
X8001000Y-8890000D02*
X7688999Y-9202001D01*
X7747000Y-8051000D02*
X7822000Y-7976000D01*
X7747000Y-8890000D02*
X7747000Y-8051000D01*
X7598998Y-11451998D02*
X7704000Y-11557000D01*
X7598998Y-9038002D02*
X7598998Y-11451998D01*
X7704000Y-11557000D02*
X7874000Y-11557000D01*
X7747000Y-8890000D02*
X7598998Y-9038002D01*
X8890000Y-6477000D02*
X8890000Y-6731000D01*
X8890000Y-6951750D02*
X8856750Y-6985000D01*
X8890000Y-6731000D02*
X8890000Y-6951750D01*
X6002250Y-6223000D02*
X6002250Y-6985000D01*
X6002250Y-6985000D02*
X6002250Y-7239000D01*
X6002250Y-7239000D02*
X6002250Y-7493000D01*
X6002250Y-7493000D02*
X6002250Y-7747000D01*
X8856750Y-10033000D02*
X8856750Y-10287000D01*
X8856750Y-10287000D02*
X8856750Y-10541000D01*
X6129250Y-10541000D02*
X6129250Y-10795000D01*
X6129250Y-10795000D02*
X6129250Y-11049000D01*
X6129250Y-11049000D02*
X6129250Y-11303000D01*
X7822000Y-6198000D02*
X8738000Y-6198000D01*
X8890000Y-6350000D02*
X8890000Y-6477000D01*
X8738000Y-6198000D02*
X8890000Y-6350000D01*
X6002250Y-6153000D02*
X6002250Y-6223000D01*
X6122250Y-6033000D02*
X6002250Y-6153000D01*
X7487000Y-6033000D02*
X6122250Y-6033000D01*
X7652000Y-6198000D02*
X7487000Y-6033000D01*
X8672750Y-9779000D02*
X8856750Y-9963000D01*
X8856750Y-9963000D02*
X8856750Y-10033000D01*
X7874000Y-9779000D02*
X8672750Y-9779000D01*
X7493000Y-8769792D02*
X7493000Y-8890000D01*
X7493000Y-6357000D02*
X7493000Y-8769792D01*
X7652000Y-6198000D02*
X7493000Y-6357000D01*
X7822000Y-6198000D02*
X7652000Y-6198000D01*
X8856750Y-9595000D02*
X8672750Y-9779000D01*
X8856750Y-6985000D02*
X8856750Y-9595000D01*
X6002250Y-9652000D02*
X6129250Y-9779000D01*
X6002250Y-7747000D02*
X6002250Y-9652000D01*
X6129250Y-9779000D02*
X6129250Y-10541000D01*
X7245001Y-6721001D02*
X7230000Y-6706000D01*
X7230000Y-6706000D02*
X7060000Y-6706000D01*
X7245001Y-8036061D02*
X7245001Y-6721001D01*
X7239000Y-8042062D02*
X7245001Y-8036061D01*
X7239000Y-8890000D02*
X7239000Y-8042062D01*
X6985000Y-8051000D02*
X7060000Y-7976000D01*
X6985000Y-8890000D02*
X6985000Y-8051000D01*
X7282000Y-11557000D02*
X7112000Y-11557000D01*
X7297001Y-11541999D02*
X7282000Y-11557000D01*
X7297001Y-9337001D02*
X7297001Y-11541999D01*
X6985000Y-9025000D02*
X7297001Y-9337001D01*
X6985000Y-8890000D02*
X6985000Y-9025000D01*
X6214750Y-7722000D02*
X6189750Y-7747000D01*
X7060000Y-7722000D02*
X6502000Y-7722000D01*
X6502000Y-7722000D02*
X6214750Y-7722000D01*
X7112000Y-11303000D02*
X6604000Y-11303000D01*
X6604000Y-11303000D02*
X6316750Y-11303000D01*
X6214750Y-7468000D02*
X6189750Y-7493000D01*
X7060000Y-7468000D02*
X6502000Y-7468000D01*
X6502000Y-7468000D02*
X6214750Y-7468000D01*
X7112000Y-11049000D02*
X6604000Y-11049000D01*
X6604000Y-11049000D02*
X6316750Y-11049000D01*
X6214750Y-7214000D02*
X6189750Y-7239000D01*
X7060000Y-7214000D02*
X6502000Y-7214000D01*
X6502000Y-7214000D02*
X6214750Y-7214000D01*
X7112000Y-10795000D02*
X6604000Y-10795000D01*
X6604000Y-10795000D02*
X6316750Y-10795000D01*
X6214750Y-6960000D02*
X6189750Y-6985000D01*
X7060000Y-6960000D02*
X6502000Y-6960000D01*
X6502000Y-6960000D02*
X6214750Y-6960000D01*
X7112000Y-10541000D02*
X6604000Y-10541000D01*
X6604000Y-10541000D02*
X6316750Y-10541000D01*
X8644250Y-6960000D02*
X8669250Y-6985000D01*
X7822000Y-6960000D02*
X8407000Y-6960000D01*
X8407000Y-6960000D02*
X8644250Y-6960000D01*
X7874000Y-10541000D02*
X8382000Y-10541000D01*
X8382000Y-10541000D02*
X8669250Y-10541000D01*
X8677500Y-6706000D02*
X8702500Y-6731000D01*
X7822000Y-6706000D02*
X8407000Y-6706000D01*
X8407000Y-6706000D02*
X8677500Y-6706000D01*
X7874000Y-10287000D02*
X8382000Y-10287000D01*
X8382000Y-10287000D02*
X8669250Y-10287000D01*
X8677500Y-6452000D02*
X8702500Y-6477000D01*
X7822000Y-6452000D02*
X8407000Y-6452000D01*
X8407000Y-6452000D02*
X8677500Y-6452000D01*
X7874000Y-10033000D02*
X8382000Y-10033000D01*
X8382000Y-10033000D02*
X8669250Y-10033000D01*
X7060000Y-6198000D02*
X6502000Y-6198000D01*
X6502000Y-6198000D02*
X6214750Y-6198000D01*
X6214750Y-6198000D02*
X6189750Y-6223000D01*
X7112000Y-9779000D02*
X6604000Y-9779000D01*
X6604000Y-9779000D02*
X6316750Y-9779000D01*
X7822000Y-7468000D02*
X7772000Y-7468000D01*
X7112000Y-10287000D02*
X6477000Y-10287000D01*
X6477000Y-10287000D02*
X6350000Y-10160000D01*
X8357000Y-7468000D02*
X7822000Y-7468000D01*
X8636000Y-7747000D02*
X8357000Y-7468000D01*
M02*
